<svg width="488" height="220" viewBox="0 0 488 220" fill="none" xmlns="http://www.w3.org/2000/svg">
<path d="M15.77 35.956C13.6673 35.956 11.7673 35.6773 10.07 35.12C8.37267 34.5627 6.916 33.752 5.7 32.688C4.50933 31.5987 3.58467 30.2687 2.926 28.698C2.29267 27.1273 1.976 25.354 1.976 23.378C1.976 21.3767 2.318 19.578 3.002 17.982C3.686 16.386 4.66133 15.0307 5.928 13.916C7.19467 12.776 8.702 11.9147 10.45 11.332C12.198 10.724 14.1233 10.42 16.226 10.42C18.6833 10.42 20.8113 10.8 22.61 11.56C24.4087 12.32 25.84 13.384 26.904 14.752C27.968 16.0947 28.576 17.6907 28.728 19.54H24.738C24.4087 18.4507 23.864 17.5133 23.104 16.728C22.3693 15.9427 21.4193 15.3347 20.254 14.904C19.114 14.448 17.7713 14.22 16.226 14.22C14.1993 14.22 12.4387 14.6127 10.944 15.398C9.47467 16.158 8.34733 17.2347 7.562 18.628C6.77667 19.996 6.384 21.5793 6.384 23.378C6.384 25.1767 6.726 26.7347 7.41 28.052C8.11933 29.344 9.18333 30.3573 10.602 31.092C12.0207 31.8013 13.7813 32.156 15.884 32.156C17.5053 32.156 18.924 31.9153 20.14 31.434C21.3813 30.9273 22.4073 30.2307 23.218 29.344C24.0287 28.4573 24.5987 27.4313 24.928 26.266L26.866 25.81C26.5113 29.078 25.346 31.586 23.37 33.334C21.4193 35.082 18.886 35.956 15.77 35.956ZM25.84 35.5C25.84 34.6893 25.878 33.7773 25.954 32.764C26.03 31.7253 26.1187 30.674 26.22 29.61C26.3467 28.5207 26.4607 27.5453 26.562 26.684H16.378V23.568H29.678V35.5H25.84ZM34.3814 16.576H38.5994V35.5H34.3814V16.576ZM45.4394 20.186C44.0714 20.186 42.8934 20.4773 41.9054 21.06C40.9427 21.6427 40.1701 22.352 39.5874 23.188C39.0047 24.024 38.5994 24.8347 38.3714 25.62L38.3334 23.492C38.3587 23.2133 38.4474 22.7953 38.5994 22.238C38.7514 21.6553 38.9794 21.022 39.2834 20.338C39.6127 19.654 40.0434 18.9953 40.5754 18.362C41.1327 17.7033 41.8041 17.1713 42.5894 16.766C43.4001 16.3607 44.3501 16.158 45.4394 16.158V20.186ZM64.4394 29.268H68.5054C68.3027 30.56 67.7961 31.7127 66.9854 32.726C66.2001 33.714 65.1234 34.4993 63.7554 35.082C62.3874 35.6393 60.7534 35.918 58.8534 35.918C56.7001 35.918 54.7747 35.5253 53.0774 34.74C51.3801 33.9293 50.0501 32.7893 49.0874 31.32C48.1247 29.8507 47.6434 28.1027 47.6434 26.076C47.6434 24.0747 48.1121 22.3267 49.0494 20.832C49.9867 19.3373 51.2787 18.1847 52.9254 17.374C54.5974 16.5633 56.5227 16.158 58.7014 16.158C60.9561 16.158 62.8307 16.5633 64.3254 17.374C65.8454 18.1593 66.9727 19.35 67.7074 20.946C68.4421 22.5167 68.7461 24.5053 68.6194 26.912H51.9374C52.0641 27.976 52.4061 28.9387 52.9634 29.8C53.5461 30.636 54.3314 31.2947 55.3194 31.776C56.3074 32.232 57.4601 32.46 58.7774 32.46C60.2467 32.46 61.4754 32.1687 62.4634 31.586C63.4767 31.0033 64.1354 30.2307 64.4394 29.268ZM58.5874 19.578C56.8647 19.578 55.4461 20.0087 54.3314 20.87C53.2167 21.706 52.4947 22.7827 52.1654 24.1H64.3634C64.2621 22.6813 63.6921 21.5793 62.6534 20.794C61.6147 19.9833 60.2594 19.578 58.5874 19.578ZM80.8174 35.918C79.0947 35.918 77.5114 35.5 76.0674 34.664C74.6487 33.828 73.5087 32.6753 72.6474 31.206C71.8114 29.7113 71.3934 28.0013 71.3934 26.076C71.3934 24.1 71.8241 22.3773 72.6854 20.908C73.5467 19.4133 74.7121 18.248 76.1814 17.412C77.6507 16.576 79.2974 16.158 81.1214 16.158C83.1481 16.158 84.7567 16.6013 85.9474 17.488C87.1381 18.3747 87.9867 19.5653 88.4934 21.06C89.0001 22.5547 89.2534 24.2267 89.2534 26.076C89.2534 27.1147 89.1014 28.2167 88.7974 29.382C88.4934 30.522 88.0121 31.586 87.3534 32.574C86.7201 33.562 85.8587 34.3727 84.7694 35.006C83.7054 35.614 82.3881 35.918 80.8174 35.918ZM82.1094 32.422C83.5281 32.422 84.7314 32.156 85.7194 31.624C86.7327 31.0667 87.4927 30.3067 87.9994 29.344C88.5314 28.3813 88.7974 27.292 88.7974 26.076C88.7974 24.7333 88.5314 23.5933 87.9994 22.656C87.4674 21.6933 86.7074 20.9587 85.7194 20.452C84.7314 19.92 83.5281 19.654 82.1094 19.654C80.0827 19.654 78.5121 20.2493 77.3974 21.44C76.2827 22.6307 75.7254 24.176 75.7254 26.076C75.7254 27.3173 75.9914 28.4193 76.5234 29.382C77.0807 30.3447 77.8407 31.092 78.8034 31.624C79.7661 32.156 80.8681 32.422 82.1094 32.422ZM88.7974 16.576H93.0534V35.5H89.1014C89.1014 35.5 89.0761 35.2593 89.0254 34.778C88.9747 34.2967 88.9241 33.714 88.8734 33.03C88.8227 32.3207 88.7974 31.6493 88.7974 31.016V16.576ZM96.36 16.576H109.736V20.034H96.36V16.576ZM100.92 11.484H105.176V35.5H100.92V11.484ZM120.481 16.576H133.857V20.034H120.481V16.576ZM125.041 11.484H129.297V35.5H125.041V11.484ZM152.685 29.268H156.751C156.549 30.56 156.042 31.7127 155.231 32.726C154.446 33.714 153.369 34.4993 152.001 35.082C150.633 35.6393 148.999 35.918 147.099 35.918C144.946 35.918 143.021 35.5253 141.323 34.74C139.626 33.9293 138.296 32.7893 137.333 31.32C136.371 29.8507 135.889 28.1027 135.889 26.076C135.889 24.0747 136.358 22.3267 137.295 20.832C138.233 19.3373 139.525 18.1847 141.171 17.374C142.843 16.5633 144.769 16.158 146.947 16.158C149.202 16.158 151.077 16.5633 152.571 17.374C154.091 18.1593 155.219 19.35 155.953 20.946C156.688 22.5167 156.992 24.5053 156.865 26.912H140.183C140.31 27.976 140.652 28.9387 141.209 29.8C141.792 30.636 142.577 31.2947 143.565 31.776C144.553 32.232 145.706 32.46 147.023 32.46C148.493 32.46 149.721 32.1687 150.709 31.586C151.723 31.0033 152.381 30.2307 152.685 29.268ZM146.833 19.578C145.111 19.578 143.692 20.0087 142.577 20.87C141.463 21.706 140.741 22.7827 140.411 24.1H152.609C152.508 22.6813 151.938 21.5793 150.899 20.794C149.861 19.9833 148.505 19.578 146.833 19.578ZM169.063 35.918C167.341 35.918 165.757 35.5 164.313 34.664C162.895 33.828 161.755 32.6753 160.893 31.206C160.057 29.7113 159.639 28.0013 159.639 26.076C159.639 24.1 160.07 22.3773 160.931 20.908C161.793 19.4133 162.958 18.248 164.427 17.412C165.897 16.576 167.543 16.158 169.367 16.158C171.394 16.158 173.003 16.6013 174.193 17.488C175.384 18.3747 176.233 19.5653 176.739 21.06C177.246 22.5547 177.499 24.2267 177.499 26.076C177.499 27.1147 177.347 28.2167 177.043 29.382C176.739 30.522 176.258 31.586 175.599 32.574C174.966 33.562 174.105 34.3727 173.015 35.006C171.951 35.614 170.634 35.918 169.063 35.918ZM170.355 32.422C171.774 32.422 172.977 32.156 173.965 31.624C174.979 31.0667 175.739 30.3067 176.245 29.344C176.777 28.3813 177.043 27.292 177.043 26.076C177.043 24.7333 176.777 23.5933 176.245 22.656C175.713 21.6933 174.953 20.9587 173.965 20.452C172.977 19.92 171.774 19.654 170.355 19.654C168.329 19.654 166.758 20.2493 165.643 21.44C164.529 22.6307 163.971 24.176 163.971 26.076C163.971 27.3173 164.237 28.4193 164.769 29.382C165.327 30.3447 166.087 31.092 167.049 31.624C168.012 32.156 169.114 32.422 170.355 32.422ZM177.043 16.576H181.299V35.5H177.347C177.347 35.5 177.322 35.2593 177.271 34.778C177.221 34.2967 177.17 33.714 177.119 33.03C177.069 32.3207 177.043 31.6493 177.043 31.016V16.576ZM185.936 16.576H190.154V35.5H185.936V16.576ZM198.134 16.158C199.223 16.158 200.224 16.31 201.136 16.614C202.073 16.918 202.871 17.3867 203.53 18.02C204.214 18.628 204.733 19.388 205.088 20.3C205.468 21.212 205.658 22.2887 205.658 23.53V35.5H201.44V24.366C201.44 22.8207 201.06 21.6807 200.3 20.946C199.565 20.186 198.4 19.806 196.804 19.806C195.588 19.806 194.473 20.072 193.46 20.604C192.472 21.1107 191.661 21.782 191.028 22.618C190.395 23.4287 190.027 24.328 189.926 25.316L189.888 23.264C190.015 22.3267 190.293 21.44 190.724 20.604C191.155 19.7427 191.725 18.9827 192.434 18.324C193.143 17.64 193.979 17.108 194.942 16.728C195.905 16.348 196.969 16.158 198.134 16.158ZM213.22 16.158C214.335 16.158 215.348 16.31 216.26 16.614C217.172 16.918 217.957 17.3867 218.616 18.02C219.3 18.628 219.832 19.388 220.212 20.3C220.592 21.212 220.782 22.2887 220.782 23.53V35.5H216.526V24.366C216.526 22.8207 216.146 21.6807 215.386 20.946C214.651 20.186 213.486 19.806 211.89 19.806C210.674 19.806 209.559 20.072 208.546 20.604C207.558 21.1107 206.747 21.782 206.114 22.618C205.506 23.4287 205.151 24.328 205.05 25.316L204.974 23.188C205.101 22.276 205.392 21.402 205.848 20.566C206.304 19.7047 206.887 18.9447 207.596 18.286C208.305 17.6273 209.129 17.108 210.066 16.728C211.029 16.348 212.08 16.158 213.22 16.158ZM247.621 32.308L246.367 32.27L251.877 16.576H256.513L249.141 35.5H245.151L239.261 19.73H240.591L234.549 35.5H230.559L223.339 16.576H227.975L233.333 32.308H232.079L237.475 16.576H242.415L247.621 32.308ZM268.889 35.918C266.786 35.918 264.899 35.538 263.227 34.778C261.555 34.018 260.238 32.9033 259.275 31.434C258.312 29.9647 257.831 28.1787 257.831 26.076C257.831 23.9987 258.312 22.2253 259.275 20.756C260.238 19.2613 261.555 18.1213 263.227 17.336C264.899 16.5507 266.786 16.158 268.889 16.158C270.992 16.158 272.866 16.5507 274.513 17.336C276.16 18.1213 277.452 19.2613 278.389 20.756C279.352 22.2253 279.833 23.9987 279.833 26.076C279.833 28.1787 279.352 29.9647 278.389 31.434C277.452 32.9033 276.16 34.018 274.513 34.778C272.866 35.538 270.992 35.918 268.889 35.918ZM268.889 32.46C270.105 32.46 271.22 32.2193 272.233 31.738C273.246 31.2567 274.044 30.5347 274.627 29.572C275.235 28.6093 275.539 27.444 275.539 26.076C275.539 24.708 275.235 23.5427 274.627 22.58C274.044 21.6173 273.246 20.8827 272.233 20.376C271.245 19.844 270.13 19.578 268.889 19.578C267.648 19.578 266.52 19.8313 265.507 20.338C264.494 20.8447 263.67 21.5793 263.037 22.542C262.429 23.5047 262.125 24.6827 262.125 26.076C262.125 27.444 262.429 28.6093 263.037 29.572C263.645 30.5347 264.456 31.2567 265.469 31.738C266.508 32.2193 267.648 32.46 268.889 32.46ZM283.608 16.576H287.826V35.5H283.608V16.576ZM294.666 20.186C293.298 20.186 292.12 20.4773 291.132 21.06C290.169 21.6427 289.397 22.352 288.814 23.188C288.231 24.024 287.826 24.8347 287.598 25.62L287.56 23.492C287.585 23.2133 287.674 22.7953 287.826 22.238C287.978 21.6553 288.206 21.022 288.51 20.338C288.839 19.654 289.27 18.9953 289.802 18.362C290.359 17.7033 291.031 17.1713 291.816 16.766C292.627 16.3607 293.577 16.158 294.666 16.158V20.186ZM298.238 8.976H302.456V35.5H298.238V8.976ZM317.2 16.576L306.598 26.304L306.712 23.644L317.998 35.5H312.602L302.57 24.898L311.348 16.576H317.2ZM328.602 29.268H332.516C332.719 30.2307 333.238 31.016 334.074 31.624C334.91 32.2067 336.037 32.498 337.456 32.498C338.368 32.498 339.077 32.3967 339.584 32.194C340.116 31.9913 340.483 31.7127 340.686 31.358C340.914 31.0033 341.028 30.598 341.028 30.142C341.028 29.5847 340.863 29.154 340.534 28.85C340.23 28.546 339.774 28.2927 339.166 28.09C338.558 27.8873 337.798 27.71 336.886 27.558C335.949 27.33 335.024 27.0767 334.112 26.798C333.2 26.5193 332.377 26.1773 331.642 25.772C330.907 25.3413 330.325 24.8093 329.894 24.176C329.489 23.5173 329.286 22.7193 329.286 21.782C329.286 20.9207 329.476 20.148 329.856 19.464C330.261 18.7547 330.819 18.1593 331.528 17.678C332.237 17.1967 333.073 16.8293 334.036 16.576C334.999 16.2973 336.05 16.158 337.19 16.158C338.837 16.158 340.205 16.424 341.294 16.956C342.409 17.488 343.245 18.2353 343.802 19.198C344.385 20.1607 344.676 21.2627 344.676 22.504H340.952C340.749 21.4907 340.357 20.756 339.774 20.3C339.191 19.844 338.317 19.616 337.152 19.616C335.987 19.616 335.1 19.8187 334.492 20.224C333.884 20.6293 333.58 21.1867 333.58 21.896C333.58 22.428 333.77 22.8587 334.15 23.188C334.555 23.492 335.125 23.758 335.86 23.986C336.595 24.214 337.456 24.442 338.444 24.67C339.356 24.9233 340.217 25.1893 341.028 25.468C341.839 25.7213 342.561 26.0507 343.194 26.456C343.853 26.836 344.372 27.3427 344.752 27.976C345.132 28.6093 345.322 29.3947 345.322 30.332C345.322 31.4973 345.005 32.498 344.372 33.334C343.764 34.17 342.877 34.816 341.712 35.272C340.547 35.7027 339.141 35.918 337.494 35.918C336.05 35.918 334.796 35.7533 333.732 35.424C332.693 35.0947 331.819 34.664 331.11 34.132C330.426 33.6 329.894 33.03 329.514 32.422C329.134 31.814 328.868 31.2313 328.716 30.674C328.589 30.1167 328.551 29.648 328.602 29.268ZM347.813 16.576H361.189V20.034H347.813V16.576ZM352.373 11.484H356.629V35.5H352.373V11.484ZM372.646 35.918C370.923 35.918 369.34 35.5 367.896 34.664C366.477 33.828 365.337 32.6753 364.476 31.206C363.64 29.7113 363.222 28.0013 363.222 26.076C363.222 24.1 363.652 22.3773 364.514 20.908C365.375 19.4133 366.54 18.248 368.01 17.412C369.479 16.576 371.126 16.158 372.95 16.158C374.976 16.158 376.585 16.6013 377.776 17.488C378.966 18.3747 379.815 19.5653 380.322 21.06C380.828 22.5547 381.082 24.2267 381.082 26.076C381.082 27.1147 380.93 28.2167 380.626 29.382C380.322 30.522 379.84 31.586 379.182 32.574C378.548 33.562 377.687 34.3727 376.598 35.006C375.534 35.614 374.216 35.918 372.646 35.918ZM373.938 32.422C375.356 32.422 376.56 32.156 377.548 31.624C378.561 31.0667 379.321 30.3067 379.828 29.344C380.36 28.3813 380.626 27.292 380.626 26.076C380.626 24.7333 380.36 23.5933 379.828 22.656C379.296 21.6933 378.536 20.9587 377.548 20.452C376.56 19.92 375.356 19.654 373.938 19.654C371.911 19.654 370.34 20.2493 369.226 21.44C368.111 22.6307 367.554 24.176 367.554 26.076C367.554 27.3173 367.82 28.4193 368.352 29.382C368.909 30.3447 369.669 31.092 370.632 31.624C371.594 32.156 372.696 32.422 373.938 32.422ZM380.626 16.576H384.882V35.5H380.93C380.93 35.5 380.904 35.2593 380.854 34.778C380.803 34.2967 380.752 33.714 380.702 33.03C380.651 32.3207 380.626 31.6493 380.626 31.016V16.576ZM389.518 16.576H393.736V35.5H389.518V16.576ZM400.576 20.186C399.208 20.186 398.03 20.4773 397.042 21.06C396.079 21.6427 395.307 22.352 394.724 23.188C394.141 24.024 393.736 24.8347 393.508 25.62L393.47 23.492C393.495 23.2133 393.584 22.7953 393.736 22.238C393.888 21.6553 394.116 21.022 394.42 20.338C394.749 19.654 395.18 18.9953 395.712 18.362C396.269 17.7033 396.941 17.1713 397.726 16.766C398.537 16.3607 399.487 16.158 400.576 16.158V20.186ZM402.512 16.576H415.888V20.034H402.512V16.576ZM407.072 11.484H411.328V35.5H407.072V11.484ZM418.37 29.268H422.284C422.486 30.2307 423.006 31.016 423.842 31.624C424.678 32.2067 425.805 32.498 427.224 32.498C428.136 32.498 428.845 32.3967 429.352 32.194C429.884 31.9913 430.251 31.7127 430.454 31.358C430.682 31.0033 430.796 30.598 430.796 30.142C430.796 29.5847 430.631 29.154 430.302 28.85C429.998 28.546 429.542 28.2927 428.934 28.09C428.326 27.8873 427.566 27.71 426.654 27.558C425.716 27.33 424.792 27.0767 423.88 26.798C422.968 26.5193 422.144 26.1773 421.41 25.772C420.675 25.3413 420.092 24.8093 419.662 24.176C419.256 23.5173 419.054 22.7193 419.054 21.782C419.054 20.9207 419.244 20.148 419.624 19.464C420.029 18.7547 420.586 18.1593 421.296 17.678C422.005 17.1967 422.841 16.8293 423.804 16.576C424.766 16.2973 425.818 16.158 426.958 16.158C428.604 16.158 429.972 16.424 431.062 16.956C432.176 17.488 433.012 18.2353 433.57 19.198C434.152 20.1607 434.444 21.2627 434.444 22.504H430.72C430.517 21.4907 430.124 20.756 429.542 20.3C428.959 19.844 428.085 19.616 426.92 19.616C425.754 19.616 424.868 19.8187 424.26 20.224C423.652 20.6293 423.348 21.1867 423.348 21.896C423.348 22.428 423.538 22.8587 423.918 23.188C424.323 23.492 424.893 23.758 425.628 23.986C426.362 24.214 427.224 24.442 428.212 24.67C429.124 24.9233 429.985 25.1893 430.796 25.468C431.606 25.7213 432.328 26.0507 432.962 26.456C433.62 26.836 434.14 27.3427 434.52 27.976C434.9 28.6093 435.09 29.3947 435.09 30.332C435.09 31.4973 434.773 32.498 434.14 33.334C433.532 34.17 432.645 34.816 431.48 35.272C430.314 35.7027 428.908 35.918 427.262 35.918C425.818 35.918 424.564 35.7533 423.5 35.424C422.461 35.0947 421.587 34.664 420.878 34.132C420.194 33.6 419.662 33.03 419.282 32.422C418.902 31.814 418.636 31.2313 418.484 30.674C418.357 30.1167 418.319 29.648 418.37 29.268ZM34.528 70.556L31.2 70.492L38.144 57.82H46.624L36.736 73.5H29.504L21.408 61.34L25.184 61.372L16.768 73.5H9.536L0.16 57.82H8.608L15.136 70.492H11.84L19.072 57.82H27.552L34.528 70.556ZM58.4292 49.596V54.396H50.3012V49.596H58.4292ZM50.5252 57.82H58.2052V73.5H50.5252V57.82ZM62.5975 57.82H81.4135V62.62H62.5975V57.82ZM68.1655 53.02H75.8455V73.5H68.1655V53.02ZM106.947 73.5V67.676C106.947 66.716 106.755 65.9053 106.371 65.244C105.987 64.5827 105.305 64.092 104.323 63.772C103.363 63.4307 101.998 63.26 100.227 63.26C99.2246 63.26 98.2432 63.356 97.2832 63.548C96.3446 63.7187 95.4912 63.932 94.7232 64.188C93.9766 64.444 93.3792 64.7 92.9312 64.956L92.8672 63.42C92.9526 63.1 93.2406 62.62 93.7312 61.98C94.2432 61.3187 94.9792 60.636 95.9392 59.932C96.8992 59.2067 98.1046 58.5987 99.5552 58.108C101.027 57.596 102.766 57.34 104.771 57.34C106.03 57.34 107.246 57.4573 108.419 57.692C109.593 57.9267 110.638 58.3213 111.555 58.876C112.494 59.4093 113.241 60.1347 113.795 61.052C114.35 61.9693 114.627 63.1107 114.627 64.476V73.5H106.947ZM85.5712 73.5V51.42H93.2512V73.5H85.5712ZM142.544 73.948C140.24 73.948 138.192 73.628 136.4 72.988C134.608 72.3267 133.189 71.3773 132.144 70.14C131.12 68.9027 130.608 67.4093 130.608 65.66C130.608 63.8253 131.12 62.2893 132.144 61.052C133.189 59.8147 134.608 58.8867 136.4 58.268C138.192 57.6493 140.24 57.34 142.544 57.34C145.104 57.34 147.312 57.692 149.168 58.396C151.045 59.0787 152.485 60.0493 153.488 61.308C154.512 62.5453 155.024 63.996 155.024 65.66C155.024 66.8973 154.736 68.028 154.16 69.052C153.584 70.0547 152.752 70.9293 151.664 71.676C150.576 72.4013 149.264 72.9667 147.728 73.372C146.192 73.756 144.464 73.948 142.544 73.948ZM145.424 69.084C147.045 69.084 148.528 68.988 149.872 68.796C151.237 68.5827 152.325 68.2307 153.136 67.74C153.968 67.2493 154.384 66.556 154.384 65.66C154.384 64.7427 153.968 64.0387 153.136 63.548C152.325 63.0573 151.237 62.716 149.872 62.524C148.528 62.332 147.045 62.236 145.424 62.236C143.248 62.236 141.562 62.524 140.368 63.1C139.173 63.6547 138.576 64.508 138.576 65.66C138.576 66.4067 138.842 67.036 139.376 67.548C139.909 68.06 140.688 68.444 141.712 68.7C142.736 68.956 143.973 69.084 145.424 69.084ZM154.384 57.82H162.064V73.5H154.832C154.832 73.5 154.789 73.2547 154.704 72.764C154.64 72.2733 154.565 71.5693 154.48 70.652C154.416 69.7347 154.384 68.6573 154.384 67.42V57.82Z" fill="white"/>
<path d="M190.001 73.948C187.697 73.948 185.649 73.628 183.857 72.988C182.065 72.3267 180.646 71.3773 179.601 70.14C178.577 68.9027 178.065 67.4093 178.065 65.66C178.065 63.8253 178.577 62.2893 179.601 61.052C180.646 59.8147 182.065 58.8867 183.857 58.268C185.649 57.6493 187.697 57.34 190.001 57.34C191.921 57.34 193.649 57.5427 195.185 57.948C196.721 58.332 198.033 58.8973 199.121 59.644C200.209 60.3693 201.041 61.244 201.617 62.268C202.193 63.292 202.481 64.4227 202.481 65.66C202.481 66.8973 202.193 68.028 201.617 69.052C201.041 70.0547 200.209 70.9293 199.121 71.676C198.033 72.4013 196.721 72.9667 195.185 73.372C193.649 73.756 191.921 73.948 190.001 73.948ZM192.881 69.084C194.502 69.084 195.985 68.988 197.329 68.796C198.694 68.5827 199.782 68.2307 200.593 67.74C201.425 67.2493 201.841 66.556 201.841 65.66C201.841 64.7427 201.425 64.0387 200.593 63.548C199.782 63.0573 198.694 62.716 197.329 62.524C195.985 62.332 194.502 62.236 192.881 62.236C190.705 62.236 189.02 62.524 187.825 63.1C186.63 63.6547 186.033 64.508 186.033 65.66C186.033 66.4067 186.3 67.036 186.833 67.548C187.366 68.06 188.145 68.444 189.169 68.7C190.193 68.956 191.43 69.084 192.881 69.084ZM201.841 51.42H209.521V73.5H202.289C202.204 73.0093 202.108 72.22 202.001 71.132C201.894 70.0227 201.841 68.7853 201.841 67.42V51.42ZM223.718 49.596V54.396H215.59V49.596H223.718ZM215.814 57.82H223.494V73.5H215.814V57.82ZM241.614 71.292C238.585 71.292 236.089 71.0467 234.126 70.556C232.164 70.044 230.713 69.2867 229.774 68.284C228.836 67.26 228.366 65.98 228.366 64.444C228.366 63.0147 228.825 61.7773 229.742 60.732C230.66 59.6653 232.089 58.8333 234.03 58.236C235.993 57.6387 238.521 57.34 241.614 57.34C242.233 57.34 242.862 57.34 243.502 57.34C244.142 57.34 244.772 57.34 245.39 57.34H257.614V61.372C256.228 61.436 254.82 61.372 253.39 61.18C251.982 60.9667 250.681 60.6893 249.486 60.348L249.134 59.868C250.094 60.1667 251.001 60.5507 251.854 61.02C252.729 61.4893 253.433 62.0547 253.966 62.716C254.5 63.3773 254.766 64.1667 254.766 65.084C254.766 66.4067 254.308 67.5373 253.39 68.476C252.494 69.3933 251.076 70.0973 249.134 70.588C247.214 71.0573 244.708 71.292 241.614 71.292ZM248.43 80.38V79.516C248.43 78.876 248.142 78.492 247.566 78.364C247.012 78.2573 246.126 78.204 244.91 78.204H235.982C234.468 78.204 233.241 78.0973 232.302 77.884C231.385 77.6707 230.681 77.3827 230.19 77.02C229.721 76.6573 229.401 76.252 229.23 75.804C229.081 75.3773 229.006 74.9507 229.006 74.524C229.006 73.6067 229.348 72.892 230.03 72.38C230.713 71.8467 231.758 71.4733 233.166 71.26C234.574 71.0467 236.366 70.94 238.542 70.94L241.614 71.292C239.822 71.292 238.574 71.388 237.87 71.58C237.166 71.7507 236.814 72.1027 236.814 72.636C236.814 72.9347 236.953 73.1587 237.23 73.308C237.508 73.436 237.881 73.5 238.35 73.5H247.79C249.902 73.5 251.566 73.6493 252.782 73.948C253.998 74.268 254.852 74.7907 255.342 75.516C255.854 76.2627 256.11 77.276 256.11 78.556V80.38H248.43ZM241.614 67.1C243.022 67.1 244.153 66.9933 245.006 66.78C245.881 66.5453 246.51 66.236 246.894 65.852C247.278 65.468 247.47 65.0413 247.47 64.572C247.47 64.0387 247.278 63.58 246.894 63.196C246.51 62.812 245.892 62.5133 245.038 62.3C244.185 62.0867 243.044 61.98 241.614 61.98C240.206 61.98 239.065 62.0867 238.19 62.3C237.316 62.5133 236.676 62.812 236.27 63.196C235.865 63.58 235.662 64.0387 235.662 64.572C235.662 65.0413 235.854 65.468 236.238 65.852C236.644 66.236 237.284 66.5453 238.158 66.78C239.033 66.9933 240.185 67.1 241.614 67.1ZM269.894 49.596V54.396H261.766V49.596H269.894ZM261.99 57.82H269.67V73.5H261.99V57.82ZM274.062 57.82H292.878V62.62H274.062V57.82ZM279.63 53.02H287.31V73.5H279.63V53.02ZM308.332 73.948C306.028 73.948 303.98 73.628 302.188 72.988C300.396 72.3267 298.978 71.3773 297.932 70.14C296.908 68.9027 296.396 67.4093 296.396 65.66C296.396 63.8253 296.908 62.2893 297.932 61.052C298.978 59.8147 300.396 58.8867 302.188 58.268C303.98 57.6493 306.028 57.34 308.332 57.34C310.892 57.34 313.1 57.692 314.956 58.396C316.834 59.0787 318.274 60.0493 319.276 61.308C320.3 62.5453 320.812 63.996 320.812 65.66C320.812 66.8973 320.524 68.028 319.948 69.052C319.372 70.0547 318.54 70.9293 317.452 71.676C316.364 72.4013 315.052 72.9667 313.516 73.372C311.98 73.756 310.252 73.948 308.332 73.948ZM311.212 69.084C312.834 69.084 314.316 68.988 315.66 68.796C317.026 68.5827 318.114 68.2307 318.924 67.74C319.756 67.2493 320.172 66.556 320.172 65.66C320.172 64.7427 319.756 64.0387 318.924 63.548C318.114 63.0573 317.026 62.716 315.66 62.524C314.316 62.332 312.834 62.236 311.212 62.236C309.036 62.236 307.351 62.524 306.156 63.1C304.962 63.6547 304.364 64.508 304.364 65.66C304.364 66.4067 304.631 67.036 305.164 67.548C305.698 68.06 306.476 68.444 307.5 68.7C308.524 68.956 309.762 69.084 311.212 69.084ZM320.172 57.82H327.852V73.5H320.62C320.62 73.5 320.578 73.2547 320.492 72.764C320.428 72.2733 320.354 71.5693 320.268 70.652C320.204 69.7347 320.172 68.6573 320.172 67.42V57.82ZM332.988 51.42H340.668V73.5H332.988V51.42ZM365.113 60.092H387.641V66.172H365.113V60.092ZM386.745 53.02H394.745V73.5H386.745V53.02ZM358.265 53.02H366.265V73.5H358.265V53.02ZM416.194 72.124H423.874V79.9H416.194V72.124ZM420.034 74.14C415.383 74.14 411.639 73.7347 408.802 72.924C405.964 72.092 403.895 70.876 402.594 69.276C401.314 67.6547 400.674 65.6493 400.674 63.26C400.674 60.8707 401.314 58.876 402.594 57.276C403.895 55.6547 405.964 54.4387 408.802 53.628C411.639 52.796 415.383 52.38 420.034 52.38C424.684 52.38 428.428 52.796 431.266 53.628C434.103 54.4387 436.162 55.6547 437.442 57.276C438.743 58.876 439.394 60.8707 439.394 63.26C439.394 65.6493 438.743 67.6547 437.442 69.276C436.162 70.876 434.103 72.092 431.266 72.924C428.428 73.7347 424.684 74.14 420.034 74.14ZM420.034 68.06C422.231 68.06 424.13 67.932 425.73 67.676C427.33 67.3987 428.567 66.9187 429.442 66.236C430.316 65.532 430.754 64.54 430.754 63.26C430.754 61.98 430.316 60.9987 429.442 60.316C428.567 59.612 427.33 59.132 425.73 58.876C424.13 58.5987 422.231 58.46 420.034 58.46C417.836 58.46 415.906 58.5987 414.242 58.876C412.599 59.132 411.308 59.612 410.37 60.316C409.452 60.9987 408.994 61.98 408.994 63.26C408.994 64.54 409.452 65.532 410.37 66.236C411.308 66.9187 412.599 67.3987 414.242 67.676C415.906 67.932 417.836 68.06 420.034 68.06Z" fill="#FFC700"/>
<path d="M5.334 146.5L0.42 132.85H2.226L6.447 144.694H5.943L9.996 132.85H11.802L15.855 144.694H15.351L19.572 132.85H21.336L16.464 146.5H14.7L10.668 134.236H11.13L7.098 146.5H5.334ZM25.2028 131.8V133.837H23.0188V131.8H25.2028ZM23.2708 136H24.9508V146.5H23.2708V136ZM27.0851 136H33.2591V137.575H27.0851V136ZM29.3321 133.27H31.0121V146.5H29.3321V133.27ZM42.7199 146.5V139.906C42.7199 139.36 42.6359 138.912 42.4679 138.562C42.2999 138.198 42.0479 137.925 41.7119 137.743C41.3759 137.561 40.9559 137.47 40.4519 137.47C39.8779 137.47 39.3459 137.617 38.8559 137.911C38.3659 138.205 37.9599 138.611 37.6379 139.129C37.3299 139.633 37.1409 140.221 37.0709 140.893L37.0499 139.675C37.1199 139.087 37.2599 138.555 37.4699 138.079C37.6939 137.603 37.9669 137.197 38.2889 136.861C38.6249 136.511 39.0029 136.245 39.4229 136.063C39.8569 135.881 40.3119 135.79 40.7879 135.79C41.3479 135.79 41.8519 135.874 42.2999 136.042C42.7479 136.21 43.1259 136.455 43.4339 136.777C43.7419 137.099 43.9799 137.491 44.1479 137.953C44.3159 138.401 44.3999 138.912 44.3999 139.486V146.5H42.7199ZM35.4959 146.5V131.8H37.1759V146.5H35.4959ZM60.8715 146.71C60.0455 146.71 59.2825 146.479 58.5825 146.017C57.8965 145.541 57.3435 144.897 56.9235 144.085C56.5175 143.259 56.3145 142.321 56.3145 141.271C56.3145 140.221 56.5245 139.283 56.9445 138.457C57.3645 137.631 57.9315 136.98 58.6455 136.504C59.3735 136.028 60.1855 135.79 61.0815 135.79C62.0615 135.79 62.8035 136.042 63.3075 136.546C63.8255 137.036 64.1755 137.694 64.3575 138.52C64.5535 139.346 64.6515 140.263 64.6515 141.271C64.6515 141.803 64.5955 142.384 64.4835 143.014C64.3715 143.63 64.1755 144.225 63.8955 144.799C63.6295 145.359 63.2515 145.821 62.7615 146.185C62.2715 146.535 61.6415 146.71 60.8715 146.71ZM61.2915 145.114C62.0055 145.114 62.5935 144.939 63.0555 144.589C63.5315 144.239 63.8815 143.777 64.1055 143.203C64.3295 142.615 64.4415 141.971 64.4415 141.271C64.4415 140.501 64.3225 139.829 64.0845 139.255C63.8605 138.667 63.5105 138.212 63.0345 137.89C62.5725 137.554 61.9915 137.386 61.2915 137.386C60.2415 137.386 59.4295 137.757 58.8555 138.499C58.2815 139.227 57.9945 140.151 57.9945 141.271C57.9945 142.013 58.1345 142.678 58.4145 143.266C58.7085 143.84 59.1005 144.295 59.5905 144.631C60.0945 144.953 60.6615 145.114 61.2915 145.114ZM64.4415 136H66.1215V146.5H64.5885C64.5885 146.5 64.5745 146.374 64.5465 146.122C64.5325 145.87 64.5115 145.576 64.4835 145.24C64.4555 144.904 64.4415 144.624 64.4415 144.4V136ZM69.0686 131.8H70.7486V146.5H69.0686V131.8ZM73.9084 131.8H75.5884V146.5H73.9084V131.8ZM87.3574 136H89.1634L92.9224 146.08L91.4524 146.5L87.3574 136ZM97.1224 136L91.2634 150.7H89.4364L91.9774 145.03L95.3374 136H97.1224ZM103.154 146.71C102.258 146.71 101.418 146.493 100.634 146.059C99.8503 145.625 99.2133 145.002 98.7233 144.19C98.2473 143.364 98.0093 142.391 98.0093 141.271C98.0093 140.151 98.2473 139.185 98.7233 138.373C99.2133 137.547 99.8503 136.91 100.634 136.462C101.418 136.014 102.258 135.79 103.154 135.79C104.05 135.79 104.883 136.014 105.653 136.462C106.437 136.91 107.067 137.547 107.543 138.373C108.019 139.185 108.257 140.151 108.257 141.271C108.257 142.391 108.019 143.364 107.543 144.19C107.067 145.002 106.437 145.625 105.653 146.059C104.883 146.493 104.05 146.71 103.154 146.71ZM103.154 145.135C103.742 145.135 104.295 144.988 104.813 144.694C105.331 144.4 105.751 143.966 106.073 143.392C106.409 142.804 106.577 142.097 106.577 141.271C106.577 140.445 106.409 139.745 106.073 139.171C105.751 138.583 105.331 138.135 104.813 137.827C104.295 137.519 103.742 137.365 103.154 137.365C102.566 137.365 102.006 137.519 101.474 137.827C100.956 138.121 100.529 138.562 100.193 139.15C99.8573 139.724 99.6893 140.431 99.6893 141.271C99.6893 142.097 99.8503 142.804 100.172 143.392C100.508 143.966 100.942 144.4 101.474 144.694C102.006 144.988 102.566 145.135 103.154 145.135ZM119.293 146.5H117.613V136H119.293V146.5ZM117.718 141.607L117.739 142.195C117.725 142.363 117.683 142.622 117.613 142.972C117.557 143.322 117.452 143.714 117.298 144.148C117.158 144.568 116.948 144.974 116.668 145.366C116.402 145.758 116.052 146.08 115.618 146.332C115.198 146.584 114.673 146.71 114.043 146.71C113.637 146.71 113.217 146.647 112.783 146.521C112.363 146.409 111.971 146.22 111.607 145.954C111.243 145.674 110.949 145.289 110.725 144.799C110.501 144.309 110.389 143.7 110.389 142.972V136H112.069V142.552C112.069 143.182 112.167 143.679 112.363 144.043C112.573 144.393 112.853 144.645 113.203 144.799C113.553 144.953 113.945 145.03 114.379 145.03C115.093 145.03 115.688 144.848 116.164 144.484C116.64 144.12 117.004 143.672 117.256 143.14C117.508 142.608 117.662 142.097 117.718 141.607ZM122.017 136H123.697V146.5H122.017V136ZM127.057 137.575C126.343 137.575 125.741 137.757 125.251 138.121C124.775 138.471 124.397 138.905 124.117 139.423C123.851 139.927 123.676 140.417 123.592 140.893L123.571 139.675C123.571 139.549 123.599 139.339 123.655 139.045C123.711 138.751 123.816 138.422 123.97 138.058C124.124 137.68 124.327 137.323 124.579 136.987C124.845 136.637 125.181 136.35 125.587 136.126C125.993 135.902 126.483 135.79 127.057 135.79V137.575ZM143.963 146.71C143.193 146.71 142.563 146.535 142.073 146.185C141.583 145.821 141.198 145.359 140.918 144.799C140.652 144.225 140.463 143.63 140.351 143.014C140.239 142.384 140.183 141.803 140.183 141.271C140.183 140.515 140.232 139.808 140.33 139.15C140.442 138.492 140.631 137.911 140.897 137.407C141.163 136.903 141.541 136.511 142.031 136.231C142.535 135.937 143.179 135.79 143.963 135.79C144.803 135.79 145.566 136.028 146.252 136.504C146.938 136.98 147.484 137.631 147.89 138.457C148.31 139.283 148.52 140.221 148.52 141.271C148.52 142.321 148.31 143.259 147.89 144.085C147.47 144.897 146.91 145.541 146.21 146.017C145.524 146.479 144.775 146.71 143.963 146.71ZM143.543 145.114C144.187 145.114 144.754 144.953 145.244 144.631C145.748 144.295 146.14 143.84 146.42 143.266C146.7 142.678 146.84 142.013 146.84 141.271C146.84 140.151 146.553 139.227 145.979 138.499C145.405 137.757 144.593 137.386 143.543 137.386C142.927 137.386 142.381 137.554 141.905 137.89C141.429 138.212 141.058 138.667 140.792 139.255C140.526 139.829 140.393 140.501 140.393 141.271C140.393 141.971 140.505 142.615 140.729 143.203C140.967 143.777 141.317 144.239 141.779 144.589C142.241 144.939 142.829 145.114 143.543 145.114ZM138.713 136H140.33L140.393 138.205V150.7H138.713V136ZM158.103 143.119H159.678C159.566 143.805 159.314 144.421 158.922 144.967C158.544 145.499 158.04 145.926 157.41 146.248C156.794 146.556 156.08 146.71 155.268 146.71C154.288 146.71 153.406 146.479 152.622 146.017C151.838 145.541 151.215 144.897 150.753 144.085C150.305 143.259 150.081 142.321 150.081 141.271C150.081 140.221 150.298 139.283 150.732 138.457C151.18 137.631 151.789 136.98 152.559 136.504C153.329 136.028 154.197 135.79 155.163 135.79C156.185 135.79 157.046 136.021 157.746 136.483C158.46 136.931 158.985 137.596 159.321 138.478C159.671 139.346 159.811 140.417 159.741 141.691H151.761C151.831 142.377 152.02 142.979 152.328 143.497C152.636 144.015 153.042 144.421 153.546 144.715C154.05 144.995 154.624 145.135 155.268 145.135C155.982 145.135 156.584 144.953 157.074 144.589C157.578 144.211 157.921 143.721 158.103 143.119ZM155.226 137.365C154.358 137.365 153.63 137.617 153.042 138.121C152.454 138.625 152.062 139.311 151.866 140.179H158.019C157.963 139.255 157.662 138.555 157.116 138.079C156.584 137.603 155.954 137.365 155.226 137.365ZM166.464 146.71C165.568 146.71 164.728 146.493 163.944 146.059C163.16 145.625 162.523 145.002 162.033 144.19C161.557 143.364 161.319 142.391 161.319 141.271C161.319 140.151 161.557 139.185 162.033 138.373C162.523 137.547 163.16 136.91 163.944 136.462C164.728 136.014 165.568 135.79 166.464 135.79C167.36 135.79 168.193 136.014 168.963 136.462C169.747 136.91 170.377 137.547 170.853 138.373C171.329 139.185 171.567 140.151 171.567 141.271C171.567 142.391 171.329 143.364 170.853 144.19C170.377 145.002 169.747 145.625 168.963 146.059C168.193 146.493 167.36 146.71 166.464 146.71ZM166.464 145.135C167.052 145.135 167.605 144.988 168.123 144.694C168.641 144.4 169.061 143.966 169.383 143.392C169.719 142.804 169.887 142.097 169.887 141.271C169.887 140.445 169.719 139.745 169.383 139.171C169.061 138.583 168.641 138.135 168.123 137.827C167.605 137.519 167.052 137.365 166.464 137.365C165.876 137.365 165.316 137.519 164.784 137.827C164.266 138.121 163.839 138.562 163.503 139.15C163.167 139.724 162.999 140.431 162.999 141.271C162.999 142.097 163.16 142.804 163.482 143.392C163.818 143.966 164.252 144.4 164.784 144.694C165.316 144.988 165.876 145.135 166.464 145.135ZM178.949 146.71C178.179 146.71 177.549 146.535 177.059 146.185C176.569 145.821 176.184 145.359 175.904 144.799C175.638 144.225 175.449 143.63 175.337 143.014C175.225 142.384 175.169 141.803 175.169 141.271C175.169 140.515 175.218 139.808 175.316 139.15C175.428 138.492 175.617 137.911 175.883 137.407C176.149 136.903 176.527 136.511 177.017 136.231C177.521 135.937 178.165 135.79 178.949 135.79C179.789 135.79 180.552 136.028 181.238 136.504C181.924 136.98 182.47 137.631 182.876 138.457C183.296 139.283 183.506 140.221 183.506 141.271C183.506 142.321 183.296 143.259 182.876 144.085C182.456 144.897 181.896 145.541 181.196 146.017C180.51 146.479 179.761 146.71 178.949 146.71ZM178.529 145.114C179.173 145.114 179.74 144.953 180.23 144.631C180.734 144.295 181.126 143.84 181.406 143.266C181.686 142.678 181.826 142.013 181.826 141.271C181.826 140.151 181.539 139.227 180.965 138.499C180.391 137.757 179.579 137.386 178.529 137.386C177.913 137.386 177.367 137.554 176.891 137.89C176.415 138.212 176.044 138.667 175.778 139.255C175.512 139.829 175.379 140.501 175.379 141.271C175.379 141.971 175.491 142.615 175.715 143.203C175.953 143.777 176.303 144.239 176.765 144.589C177.227 144.939 177.815 145.114 178.529 145.114ZM173.699 136H175.316L175.379 138.205V150.7H173.699V136ZM185.865 131.8H187.545V146.5H185.865V131.8ZM197.929 143.119H199.504C199.392 143.805 199.14 144.421 198.748 144.967C198.37 145.499 197.866 145.926 197.236 146.248C196.62 146.556 195.906 146.71 195.094 146.71C194.114 146.71 193.232 146.479 192.448 146.017C191.664 145.541 191.041 144.897 190.579 144.085C190.131 143.259 189.907 142.321 189.907 141.271C189.907 140.221 190.124 139.283 190.558 138.457C191.006 137.631 191.615 136.98 192.385 136.504C193.155 136.028 194.023 135.79 194.989 135.79C196.011 135.79 196.872 136.021 197.572 136.483C198.286 136.931 198.811 137.596 199.147 138.478C199.497 139.346 199.637 140.417 199.567 141.691H191.587C191.657 142.377 191.846 142.979 192.154 143.497C192.462 144.015 192.868 144.421 193.372 144.715C193.876 144.995 194.45 145.135 195.094 145.135C195.808 145.135 196.41 144.953 196.9 144.589C197.404 144.211 197.747 143.721 197.929 143.119ZM195.052 137.365C194.184 137.365 193.456 137.617 192.868 138.121C192.28 138.625 191.888 139.311 191.692 140.179H197.845C197.789 139.255 197.488 138.555 196.942 138.079C196.41 137.603 195.78 137.365 195.052 137.365ZM201.717 149.482L201.276 149.02C201.5 148.628 201.696 148.236 201.864 147.844C202.032 147.466 202.123 147.095 202.137 146.731L201.108 146.5V144.463H203.376V145.933C203.376 146.787 203.201 147.487 202.851 148.033C202.515 148.579 202.137 149.062 201.717 149.482ZM214.721 136H220.895V137.575H214.721V136ZM216.968 133.27H218.648V146.5H216.968V133.27ZM227.231 146.71C226.335 146.71 225.495 146.493 224.711 146.059C223.927 145.625 223.29 145.002 222.8 144.19C222.324 143.364 222.086 142.391 222.086 141.271C222.086 140.151 222.324 139.185 222.8 138.373C223.29 137.547 223.927 136.91 224.711 136.462C225.495 136.014 226.335 135.79 227.231 135.79C228.127 135.79 228.96 136.014 229.73 136.462C230.514 136.91 231.144 137.547 231.62 138.373C232.096 139.185 232.334 140.151 232.334 141.271C232.334 142.391 232.096 143.364 231.62 144.19C231.144 145.002 230.514 145.625 229.73 146.059C228.96 146.493 228.127 146.71 227.231 146.71ZM227.231 145.135C227.819 145.135 228.372 144.988 228.89 144.694C229.408 144.4 229.828 143.966 230.15 143.392C230.486 142.804 230.654 142.097 230.654 141.271C230.654 140.445 230.486 139.745 230.15 139.171C229.828 138.583 229.408 138.135 228.89 137.827C228.372 137.519 227.819 137.365 227.231 137.365C226.643 137.365 226.083 137.519 225.551 137.827C225.033 138.121 224.606 138.562 224.27 139.15C223.934 139.724 223.766 140.431 223.766 141.271C223.766 142.097 223.927 142.804 224.249 143.392C224.585 143.966 225.019 144.4 225.551 144.694C226.083 144.988 226.643 145.135 227.231 145.135ZM239.023 146.71C238.127 146.71 237.287 146.493 236.503 146.059C235.719 145.625 235.082 145.002 234.592 144.19C234.116 143.364 233.878 142.391 233.878 141.271C233.878 140.151 234.116 139.185 234.592 138.373C235.082 137.547 235.719 136.91 236.503 136.462C237.287 136.014 238.127 135.79 239.023 135.79C239.919 135.79 240.752 136.014 241.522 136.462C242.306 136.91 242.936 137.547 243.412 138.373C243.888 139.185 244.126 140.151 244.126 141.271C244.126 142.391 243.888 143.364 243.412 144.19C242.936 145.002 242.306 145.625 241.522 146.059C240.752 146.493 239.919 146.71 239.023 146.71ZM239.023 145.135C239.611 145.135 240.164 144.988 240.682 144.694C241.2 144.4 241.62 143.966 241.942 143.392C242.278 142.804 242.446 142.097 242.446 141.271C242.446 140.445 242.278 139.745 241.942 139.171C241.62 138.583 241.2 138.135 240.682 137.827C240.164 137.519 239.611 137.365 239.023 137.365C238.435 137.365 237.875 137.519 237.343 137.827C236.825 138.121 236.398 138.562 236.062 139.15C235.726 139.724 235.558 140.431 235.558 141.271C235.558 142.097 235.719 142.804 236.041 143.392C236.377 143.966 236.811 144.4 237.343 144.694C237.875 144.988 238.435 145.135 239.023 145.135ZM246.468 131.8H248.148V146.5H246.468V131.8ZM250.594 143.119H252.148C252.19 143.721 252.414 144.211 252.82 144.589C253.24 144.967 253.842 145.156 254.626 145.156C255.102 145.156 255.473 145.093 255.739 144.967C256.019 144.841 256.222 144.673 256.348 144.463C256.474 144.239 256.537 143.994 256.537 143.728C256.537 143.406 256.453 143.154 256.285 142.972C256.131 142.776 255.914 142.615 255.634 142.489C255.368 142.363 255.06 142.244 254.71 142.132C254.304 141.978 253.884 141.817 253.45 141.649C253.03 141.467 252.631 141.257 252.253 141.019C251.889 140.767 251.595 140.466 251.371 140.116C251.147 139.752 251.035 139.318 251.035 138.814C251.035 138.394 251.119 138.002 251.287 137.638C251.455 137.26 251.693 136.938 252.001 136.672C252.323 136.392 252.694 136.175 253.114 136.021C253.548 135.867 254.024 135.79 254.542 135.79C255.242 135.79 255.83 135.93 256.306 136.21C256.796 136.49 257.167 136.889 257.419 137.407C257.685 137.911 257.825 138.499 257.839 139.171H256.39C256.292 138.541 256.089 138.086 255.781 137.806C255.487 137.512 255.06 137.365 254.5 137.365C253.926 137.365 253.485 137.491 253.177 137.743C252.869 137.995 252.715 138.331 252.715 138.751C252.715 139.059 252.827 139.318 253.051 139.528C253.275 139.724 253.562 139.906 253.912 140.074C254.276 140.228 254.661 140.389 255.067 140.557C255.473 140.725 255.865 140.893 256.243 141.061C256.621 141.229 256.957 141.425 257.251 141.649C257.545 141.873 257.776 142.153 257.944 142.489C258.126 142.811 258.217 143.217 258.217 143.707C258.217 144.295 258.077 144.82 257.797 145.282C257.531 145.73 257.132 146.08 256.6 146.332C256.082 146.584 255.445 146.71 254.689 146.71C254.003 146.71 253.415 146.626 252.925 146.458C252.449 146.276 252.05 146.045 251.728 145.765C251.406 145.471 251.154 145.163 250.972 144.841C250.804 144.519 250.692 144.204 250.636 143.896C250.58 143.588 250.566 143.329 250.594 143.119ZM274.101 146.71C273.275 146.71 272.512 146.479 271.812 146.017C271.126 145.541 270.573 144.897 270.153 144.085C269.747 143.259 269.544 142.321 269.544 141.271C269.544 140.221 269.754 139.283 270.174 138.457C270.594 137.631 271.161 136.98 271.875 136.504C272.603 136.028 273.415 135.79 274.311 135.79C275.291 135.79 276.033 136.042 276.537 136.546C277.055 137.036 277.405 137.694 277.587 138.52C277.783 139.346 277.881 140.263 277.881 141.271C277.881 141.803 277.825 142.384 277.713 143.014C277.601 143.63 277.405 144.225 277.125 144.799C276.859 145.359 276.481 145.821 275.991 146.185C275.501 146.535 274.871 146.71 274.101 146.71ZM274.521 145.114C275.235 145.114 275.823 144.939 276.285 144.589C276.761 144.239 277.111 143.777 277.335 143.203C277.559 142.615 277.671 141.971 277.671 141.271C277.671 140.501 277.552 139.829 277.314 139.255C277.09 138.667 276.74 138.212 276.264 137.89C275.802 137.554 275.221 137.386 274.521 137.386C273.471 137.386 272.659 137.757 272.085 138.499C271.511 139.227 271.224 140.151 271.224 141.271C271.224 142.013 271.364 142.678 271.644 143.266C271.938 143.84 272.33 144.295 272.82 144.631C273.324 144.953 273.891 145.114 274.521 145.114ZM277.671 136H279.351V146.5H277.818C277.818 146.5 277.804 146.374 277.776 146.122C277.762 145.87 277.741 145.576 277.713 145.24C277.685 144.904 277.671 144.624 277.671 144.4V136ZM282.088 136H283.768V146.5H282.088V136ZM287.38 135.79C287.94 135.79 288.444 135.874 288.892 136.042C289.34 136.21 289.718 136.455 290.026 136.777C290.334 137.099 290.572 137.491 290.74 137.953C290.908 138.401 290.992 138.912 290.992 139.486V146.5H289.312V139.906C289.312 139.094 289.123 138.485 288.745 138.079C288.367 137.673 287.8 137.47 287.044 137.47C286.47 137.47 285.938 137.617 285.448 137.911C284.958 138.205 284.552 138.611 284.23 139.129C283.922 139.633 283.733 140.221 283.663 140.893L283.642 139.675C283.712 139.087 283.852 138.555 284.062 138.079C284.286 137.603 284.559 137.197 284.881 136.861C285.217 136.511 285.595 136.245 286.015 136.063C286.449 135.881 286.904 135.79 287.38 135.79ZM297.685 146.71C296.845 146.71 296.075 146.479 295.375 146.017C294.689 145.541 294.143 144.897 293.737 144.085C293.331 143.259 293.128 142.321 293.128 141.271C293.128 140.221 293.324 139.283 293.716 138.457C294.108 137.631 294.647 136.98 295.333 136.504C296.019 136.028 296.803 135.79 297.685 135.79C298.469 135.79 299.106 135.937 299.596 136.231C300.1 136.511 300.485 136.903 300.751 137.407C301.017 137.911 301.199 138.492 301.297 139.15C301.409 139.808 301.465 140.515 301.465 141.271C301.465 141.803 301.409 142.384 301.297 143.014C301.185 143.63 300.989 144.225 300.709 144.799C300.443 145.359 300.065 145.821 299.575 146.185C299.085 146.535 298.455 146.71 297.685 146.71ZM298.105 145.114C298.819 145.114 299.407 144.939 299.869 144.589C300.345 144.239 300.695 143.777 300.919 143.203C301.143 142.615 301.255 141.971 301.255 141.271C301.255 140.501 301.136 139.829 300.898 139.255C300.674 138.667 300.324 138.212 299.848 137.89C299.386 137.554 298.805 137.386 298.105 137.386C297.055 137.386 296.243 137.757 295.669 138.499C295.095 139.227 294.808 140.151 294.808 141.271C294.808 142.013 294.948 142.678 295.228 143.266C295.522 143.84 295.914 144.295 296.404 144.631C296.908 144.953 297.475 145.114 298.105 145.114ZM301.255 131.8H302.935V146.5H301.402C301.374 146.192 301.339 145.828 301.297 145.408C301.269 144.988 301.255 144.652 301.255 144.4V131.8ZM325.067 142.552C324.969 143.42 324.689 144.169 324.227 144.799C323.779 145.415 323.212 145.891 322.526 146.227C321.84 146.549 321.098 146.71 320.3 146.71C319.404 146.71 318.564 146.493 317.78 146.059C316.996 145.625 316.359 145.002 315.869 144.19C315.393 143.364 315.155 142.391 315.155 141.271C315.155 140.151 315.393 139.185 315.869 138.373C316.359 137.547 316.996 136.91 317.78 136.462C318.564 136.014 319.404 135.79 320.3 135.79C321.098 135.79 321.833 135.958 322.505 136.294C323.191 136.63 323.758 137.106 324.206 137.722C324.668 138.338 324.955 139.073 325.067 139.927H323.534C323.296 139.129 322.883 138.506 322.295 138.058C321.707 137.596 321.042 137.365 320.3 137.365C319.698 137.365 319.131 137.519 318.599 137.827C318.067 138.135 317.64 138.583 317.318 139.171C316.996 139.745 316.835 140.445 316.835 141.271C316.835 142.083 316.996 142.783 317.318 143.371C317.64 143.945 318.06 144.386 318.578 144.694C319.11 144.988 319.684 145.135 320.3 145.135C321.154 145.135 321.847 144.911 322.379 144.463C322.925 144.001 323.317 143.364 323.555 142.552H325.067ZM331.764 146.71C330.868 146.71 330.028 146.493 329.244 146.059C328.46 145.625 327.823 145.002 327.333 144.19C326.857 143.364 326.619 142.391 326.619 141.271C326.619 140.151 326.857 139.185 327.333 138.373C327.823 137.547 328.46 136.91 329.244 136.462C330.028 136.014 330.868 135.79 331.764 135.79C332.66 135.79 333.493 136.014 334.263 136.462C335.047 136.91 335.677 137.547 336.153 138.373C336.629 139.185 336.867 140.151 336.867 141.271C336.867 142.391 336.629 143.364 336.153 144.19C335.677 145.002 335.047 145.625 334.263 146.059C333.493 146.493 332.66 146.71 331.764 146.71ZM331.764 145.135C332.352 145.135 332.905 144.988 333.423 144.694C333.941 144.4 334.361 143.966 334.683 143.392C335.019 142.804 335.187 142.097 335.187 141.271C335.187 140.445 335.019 139.745 334.683 139.171C334.361 138.583 333.941 138.135 333.423 137.827C332.905 137.519 332.352 137.365 331.764 137.365C331.176 137.365 330.616 137.519 330.084 137.827C329.566 138.121 329.139 138.562 328.803 139.15C328.467 139.724 328.299 140.431 328.299 141.271C328.299 142.097 328.46 142.804 328.782 143.392C329.118 143.966 329.552 144.4 330.084 144.694C330.616 144.988 331.176 145.135 331.764 145.135ZM338.999 136H340.679V146.5H338.999V136ZM344.291 135.79C344.851 135.79 345.355 135.874 345.803 136.042C346.251 136.21 346.629 136.455 346.937 136.777C347.245 137.099 347.483 137.491 347.651 137.953C347.819 138.401 347.903 138.912 347.903 139.486V146.5H346.223V139.906C346.223 139.094 346.034 138.485 345.656 138.079C345.278 137.673 344.711 137.47 343.955 137.47C343.381 137.47 342.849 137.617 342.359 137.911C341.869 138.205 341.463 138.611 341.141 139.129C340.833 139.633 340.644 140.221 340.574 140.893L340.553 139.675C340.623 139.087 340.763 138.555 340.973 138.079C341.197 137.603 341.47 137.197 341.792 136.861C342.128 136.511 342.506 136.245 342.926 136.063C343.36 135.881 343.815 135.79 344.291 135.79ZM351.347 135.79C351.907 135.79 352.411 135.874 352.859 136.042C353.307 136.21 353.685 136.455 353.993 136.777C354.301 137.099 354.539 137.491 354.707 137.953C354.875 138.401 354.959 138.912 354.959 139.486V146.5H353.279V139.906C353.279 139.094 353.09 138.485 352.712 138.079C352.334 137.673 351.767 137.47 351.011 137.47C350.437 137.47 349.905 137.617 349.415 137.911C348.925 138.205 348.519 138.611 348.197 139.129C347.889 139.633 347.7 140.221 347.63 140.893L347.609 139.675C347.679 139.087 347.819 138.555 348.029 138.079C348.253 137.603 348.526 137.197 348.848 136.861C349.184 136.511 349.562 136.245 349.982 136.063C350.416 135.881 350.871 135.79 351.347 135.79ZM357.682 136H359.362V146.5H357.682V136ZM362.974 135.79C363.534 135.79 364.038 135.874 364.486 136.042C364.934 136.21 365.312 136.455 365.62 136.777C365.928 137.099 366.166 137.491 366.334 137.953C366.502 138.401 366.586 138.912 366.586 139.486V146.5H364.906V139.906C364.906 139.094 364.717 138.485 364.339 138.079C363.961 137.673 363.394 137.47 362.638 137.47C362.064 137.47 361.532 137.617 361.042 137.911C360.552 138.205 360.146 138.611 359.824 139.129C359.516 139.633 359.327 140.221 359.257 140.893L359.236 139.675C359.306 139.087 359.446 138.555 359.656 138.079C359.88 137.603 360.153 137.197 360.475 136.861C360.811 136.511 361.189 136.245 361.609 136.063C362.043 135.881 362.498 135.79 362.974 135.79ZM370.03 135.79C370.59 135.79 371.094 135.874 371.542 136.042C371.99 136.21 372.368 136.455 372.676 136.777C372.984 137.099 373.222 137.491 373.39 137.953C373.558 138.401 373.642 138.912 373.642 139.486V146.5H371.962V139.906C371.962 139.094 371.773 138.485 371.395 138.079C371.017 137.673 370.45 137.47 369.694 137.47C369.12 137.47 368.588 137.617 368.098 137.911C367.608 138.205 367.202 138.611 366.88 139.129C366.572 139.633 366.383 140.221 366.313 140.893L366.292 139.675C366.362 139.087 366.502 138.555 366.712 138.079C366.936 137.603 367.209 137.197 367.531 136.861C367.867 136.511 368.245 136.245 368.665 136.063C369.099 135.881 369.554 135.79 370.03 135.79ZM385.269 146.5H383.589V136H385.269V146.5ZM383.694 141.607L383.715 142.195C383.701 142.363 383.659 142.622 383.589 142.972C383.533 143.322 383.428 143.714 383.274 144.148C383.134 144.568 382.924 144.974 382.644 145.366C382.378 145.758 382.028 146.08 381.594 146.332C381.174 146.584 380.649 146.71 380.019 146.71C379.613 146.71 379.193 146.647 378.759 146.521C378.339 146.409 377.947 146.22 377.583 145.954C377.219 145.674 376.925 145.289 376.701 144.799C376.477 144.309 376.365 143.7 376.365 142.972V136H378.045V142.552C378.045 143.182 378.143 143.679 378.339 144.043C378.549 144.393 378.829 144.645 379.179 144.799C379.529 144.953 379.921 145.03 380.355 145.03C381.069 145.03 381.664 144.848 382.14 144.484C382.616 144.12 382.98 143.672 383.232 143.14C383.484 142.608 383.638 142.097 383.694 141.607ZM387.993 136H389.673V146.5H387.993V136ZM393.285 135.79C393.845 135.79 394.349 135.874 394.797 136.042C395.245 136.21 395.623 136.455 395.931 136.777C396.239 137.099 396.477 137.491 396.645 137.953C396.813 138.401 396.897 138.912 396.897 139.486V146.5H395.217V139.906C395.217 139.094 395.028 138.485 394.65 138.079C394.272 137.673 393.705 137.47 392.949 137.47C392.375 137.47 391.843 137.617 391.353 137.911C390.863 138.205 390.457 138.611 390.135 139.129C389.827 139.633 389.638 140.221 389.568 140.893L389.547 139.675C389.617 139.087 389.757 138.555 389.967 138.079C390.191 137.603 390.464 137.197 390.786 136.861C391.122 136.511 391.5 136.245 391.92 136.063C392.354 135.881 392.809 135.79 393.285 135.79ZM401.699 131.8V133.837H399.515V131.8H401.699ZM399.767 136H401.447V146.5H399.767V136ZM413.641 142.552C413.543 143.42 413.263 144.169 412.801 144.799C412.353 145.415 411.786 145.891 411.1 146.227C410.414 146.549 409.672 146.71 408.874 146.71C407.978 146.71 407.138 146.493 406.354 146.059C405.57 145.625 404.933 145.002 404.443 144.19C403.967 143.364 403.729 142.391 403.729 141.271C403.729 140.151 403.967 139.185 404.443 138.373C404.933 137.547 405.57 136.91 406.354 136.462C407.138 136.014 407.978 135.79 408.874 135.79C409.672 135.79 410.407 135.958 411.079 136.294C411.765 136.63 412.332 137.106 412.78 137.722C413.242 138.338 413.529 139.073 413.641 139.927H412.108C411.87 139.129 411.457 138.506 410.869 138.058C410.281 137.596 409.616 137.365 408.874 137.365C408.272 137.365 407.705 137.519 407.173 137.827C406.641 138.135 406.214 138.583 405.892 139.171C405.57 139.745 405.409 140.445 405.409 141.271C405.409 142.083 405.57 142.783 405.892 143.371C406.214 143.945 406.634 144.386 407.152 144.694C407.684 144.988 408.258 145.135 408.874 145.135C409.728 145.135 410.421 144.911 410.953 144.463C411.499 144.001 411.891 143.364 412.129 142.552H413.641ZM419.75 146.71C418.924 146.71 418.161 146.479 417.461 146.017C416.775 145.541 416.222 144.897 415.802 144.085C415.396 143.259 415.193 142.321 415.193 141.271C415.193 140.221 415.403 139.283 415.823 138.457C416.243 137.631 416.81 136.98 417.524 136.504C418.252 136.028 419.064 135.79 419.96 135.79C420.94 135.79 421.682 136.042 422.186 136.546C422.704 137.036 423.054 137.694 423.236 138.52C423.432 139.346 423.53 140.263 423.53 141.271C423.53 141.803 423.474 142.384 423.362 143.014C423.25 143.63 423.054 144.225 422.774 144.799C422.508 145.359 422.13 145.821 421.64 146.185C421.15 146.535 420.52 146.71 419.75 146.71ZM420.17 145.114C420.884 145.114 421.472 144.939 421.934 144.589C422.41 144.239 422.76 143.777 422.984 143.203C423.208 142.615 423.32 141.971 423.32 141.271C423.32 140.501 423.201 139.829 422.963 139.255C422.739 138.667 422.389 138.212 421.913 137.89C421.451 137.554 420.87 137.386 420.17 137.386C419.12 137.386 418.308 137.757 417.734 138.499C417.16 139.227 416.873 140.151 416.873 141.271C416.873 142.013 417.013 142.678 417.293 143.266C417.587 143.84 417.979 144.295 418.469 144.631C418.973 144.953 419.54 145.114 420.17 145.114ZM423.32 136H425V146.5H423.467C423.467 146.5 423.453 146.374 423.425 146.122C423.411 145.87 423.39 145.576 423.362 145.24C423.334 144.904 423.32 144.624 423.32 144.4V136ZM427.002 136H433.176V137.575H427.002V136ZM429.249 133.27H430.929V146.5H429.249V133.27ZM437.239 131.8V133.837H435.055V131.8H437.239ZM435.307 136H436.987V146.5H435.307V136ZM444.414 146.71C443.518 146.71 442.678 146.493 441.894 146.059C441.11 145.625 440.473 145.002 439.983 144.19C439.507 143.364 439.269 142.391 439.269 141.271C439.269 140.151 439.507 139.185 439.983 138.373C440.473 137.547 441.11 136.91 441.894 136.462C442.678 136.014 443.518 135.79 444.414 135.79C445.31 135.79 446.143 136.014 446.913 136.462C447.697 136.91 448.327 137.547 448.803 138.373C449.279 139.185 449.517 140.151 449.517 141.271C449.517 142.391 449.279 143.364 448.803 144.19C448.327 145.002 447.697 145.625 446.913 146.059C446.143 146.493 445.31 146.71 444.414 146.71ZM444.414 145.135C445.002 145.135 445.555 144.988 446.073 144.694C446.591 144.4 447.011 143.966 447.333 143.392C447.669 142.804 447.837 142.097 447.837 141.271C447.837 140.445 447.669 139.745 447.333 139.171C447.011 138.583 446.591 138.135 446.073 137.827C445.555 137.519 445.002 137.365 444.414 137.365C443.826 137.365 443.266 137.519 442.734 137.827C442.216 138.121 441.789 138.562 441.453 139.15C441.117 139.724 440.949 140.431 440.949 141.271C440.949 142.097 441.11 142.804 441.432 143.392C441.768 143.966 442.202 144.4 442.734 144.694C443.266 144.988 443.826 145.135 444.414 145.135ZM451.649 136H453.329V146.5H451.649V136ZM456.941 135.79C457.501 135.79 458.005 135.874 458.453 136.042C458.901 136.21 459.279 136.455 459.587 136.777C459.895 137.099 460.133 137.491 460.301 137.953C460.469 138.401 460.553 138.912 460.553 139.486V146.5H458.873V139.906C458.873 139.094 458.684 138.485 458.306 138.079C457.928 137.673 457.361 137.47 456.605 137.47C456.031 137.47 455.499 137.617 455.009 137.911C454.519 138.205 454.113 138.611 453.791 139.129C453.483 139.633 453.294 140.221 453.224 140.893L453.203 139.675C453.273 139.087 453.413 138.555 453.623 138.079C453.847 137.603 454.12 137.197 454.442 136.861C454.778 136.511 455.156 136.245 455.576 136.063C456.01 135.881 456.465 135.79 456.941 135.79ZM475.12 131.8V133.837H472.936V131.8H475.12ZM473.188 136H474.868V146.5H473.188V136ZM477.737 136H479.417V146.5H477.737V136ZM483.029 135.79C483.589 135.79 484.093 135.874 484.541 136.042C484.989 136.21 485.367 136.455 485.675 136.777C485.983 137.099 486.221 137.491 486.389 137.953C486.557 138.401 486.641 138.912 486.641 139.486V146.5H484.961V139.906C484.961 139.094 484.772 138.485 484.394 138.079C484.016 137.673 483.449 137.47 482.693 137.47C482.119 137.47 481.587 137.617 481.097 137.911C480.607 138.205 480.201 138.611 479.879 139.129C479.571 139.633 479.382 140.221 479.312 140.893L479.291 139.675C479.361 139.087 479.501 138.555 479.711 138.079C479.935 137.603 480.208 137.197 480.53 136.861C480.866 136.511 481.244 136.245 481.664 136.063C482.098 135.881 482.553 135.79 483.029 135.79ZM5.922 178.71C5.026 178.71 4.186 178.493 3.402 178.059C2.618 177.625 1.981 177.002 1.491 176.19C1.015 175.364 0.777 174.391 0.777 173.271C0.777 172.151 1.015 171.185 1.491 170.373C1.981 169.547 2.618 168.91 3.402 168.462C4.186 168.014 5.026 167.79 5.922 167.79C6.818 167.79 7.651 168.014 8.421 168.462C9.205 168.91 9.835 169.547 10.311 170.373C10.787 171.185 11.025 172.151 11.025 173.271C11.025 174.391 10.787 175.364 10.311 176.19C9.835 177.002 9.205 177.625 8.421 178.059C7.651 178.493 6.818 178.71 5.922 178.71ZM5.922 177.135C6.51 177.135 7.063 176.988 7.581 176.694C8.099 176.4 8.519 175.966 8.841 175.392C9.177 174.804 9.345 174.097 9.345 173.271C9.345 172.445 9.177 171.745 8.841 171.171C8.519 170.583 8.099 170.135 7.581 169.827C7.063 169.519 6.51 169.365 5.922 169.365C5.334 169.365 4.774 169.519 4.242 169.827C3.724 170.121 3.297 170.562 2.961 171.15C2.625 171.724 2.457 172.431 2.457 173.271C2.457 174.097 2.618 174.804 2.94 175.392C3.276 175.966 3.71 176.4 4.242 176.694C4.774 176.988 5.334 177.135 5.922 177.135ZM13.157 168H14.837V178.5H13.157V168ZM18.449 167.79C19.009 167.79 19.513 167.874 19.961 168.042C20.409 168.21 20.787 168.455 21.095 168.777C21.403 169.099 21.641 169.491 21.809 169.953C21.977 170.401 22.061 170.912 22.061 171.486V178.5H20.381V171.906C20.381 171.094 20.192 170.485 19.814 170.079C19.436 169.673 18.869 169.47 18.113 169.47C17.539 169.47 17.007 169.617 16.517 169.911C16.027 170.205 15.621 170.611 15.299 171.129C14.991 171.633 14.802 172.221 14.732 172.893L14.711 171.675C14.781 171.087 14.921 170.555 15.131 170.079C15.355 169.603 15.628 169.197 15.95 168.861C16.286 168.511 16.664 168.245 17.084 168.063C17.518 167.881 17.973 167.79 18.449 167.79ZM32.2189 175.119H33.7939C33.6819 175.805 33.4299 176.421 33.0379 176.967C32.6599 177.499 32.1559 177.926 31.5259 178.248C30.9099 178.556 30.1959 178.71 29.3839 178.71C28.4039 178.71 27.5219 178.479 26.7379 178.017C25.9539 177.541 25.3309 176.897 24.8689 176.085C24.4209 175.259 24.1969 174.321 24.1969 173.271C24.1969 172.221 24.4139 171.283 24.8479 170.457C25.2959 169.631 25.9049 168.98 26.6749 168.504C27.4449 168.028 28.3129 167.79 29.2789 167.79C30.3009 167.79 31.1619 168.021 31.8619 168.483C32.5759 168.931 33.1009 169.596 33.4369 170.478C33.7869 171.346 33.9269 172.417 33.8569 173.691H25.8769C25.9469 174.377 26.1359 174.979 26.4439 175.497C26.7519 176.015 27.1579 176.421 27.6619 176.715C28.1659 176.995 28.7399 177.135 29.3839 177.135C30.0979 177.135 30.6999 176.953 31.1899 176.589C31.6939 176.211 32.0369 175.721 32.2189 175.119ZM29.3419 169.365C28.4739 169.365 27.7459 169.617 27.1579 170.121C26.5699 170.625 26.1779 171.311 25.9819 172.179H32.1349C32.0789 171.255 31.7779 170.555 31.2319 170.079C30.6999 169.603 30.0699 169.365 29.3419 169.365ZM47.7096 178.71C46.9396 178.71 46.3096 178.535 45.8196 178.185C45.3296 177.821 44.9446 177.359 44.6646 176.799C44.3986 176.225 44.2096 175.63 44.0976 175.014C43.9856 174.384 43.9296 173.803 43.9296 173.271C43.9296 172.515 43.9786 171.808 44.0766 171.15C44.1886 170.492 44.3776 169.911 44.6436 169.407C44.9096 168.903 45.2876 168.511 45.7776 168.231C46.2816 167.937 46.9256 167.79 47.7096 167.79C48.5496 167.79 49.3126 168.028 49.9986 168.504C50.6846 168.98 51.2306 169.631 51.6366 170.457C52.0566 171.283 52.2666 172.221 52.2666 173.271C52.2666 174.321 52.0566 175.259 51.6366 176.085C51.2166 176.897 50.6566 177.541 49.9566 178.017C49.2706 178.479 48.5216 178.71 47.7096 178.71ZM47.2896 177.114C47.9336 177.114 48.5006 176.953 48.9906 176.631C49.4946 176.295 49.8866 175.84 50.1666 175.266C50.4466 174.678 50.5866 174.013 50.5866 173.271C50.5866 172.151 50.2996 171.227 49.7256 170.499C49.1516 169.757 48.3396 169.386 47.2896 169.386C46.6736 169.386 46.1276 169.554 45.6516 169.89C45.1756 170.212 44.8046 170.667 44.5386 171.255C44.2726 171.829 44.1396 172.501 44.1396 173.271C44.1396 173.971 44.2516 174.615 44.4756 175.203C44.7136 175.777 45.0636 176.239 45.5256 176.589C45.9876 176.939 46.5756 177.114 47.2896 177.114ZM42.4596 168H44.0766L44.1396 170.205V182.7H42.4596V168ZM54.6257 163.8H56.3057V178.5H54.6257V163.8ZM63.2245 178.71C62.3985 178.71 61.6355 178.479 60.9355 178.017C60.2495 177.541 59.6965 176.897 59.2765 176.085C58.8705 175.259 58.6675 174.321 58.6675 173.271C58.6675 172.221 58.8775 171.283 59.2975 170.457C59.7175 169.631 60.2845 168.98 60.9985 168.504C61.7265 168.028 62.5385 167.79 63.4345 167.79C64.4145 167.79 65.1565 168.042 65.6605 168.546C66.1785 169.036 66.5285 169.694 66.7105 170.52C66.9065 171.346 67.0045 172.263 67.0045 173.271C67.0045 173.803 66.9485 174.384 66.8365 175.014C66.7245 175.63 66.5285 176.225 66.2485 176.799C65.9825 177.359 65.6045 177.821 65.1145 178.185C64.6245 178.535 63.9945 178.71 63.2245 178.71ZM63.6445 177.114C64.3585 177.114 64.9465 176.939 65.4085 176.589C65.8845 176.239 66.2345 175.777 66.4585 175.203C66.6825 174.615 66.7945 173.971 66.7945 173.271C66.7945 172.501 66.6755 171.829 66.4375 171.255C66.2135 170.667 65.8635 170.212 65.3875 169.89C64.9255 169.554 64.3445 169.386 63.6445 169.386C62.5945 169.386 61.7825 169.757 61.2085 170.499C60.6345 171.227 60.3475 172.151 60.3475 173.271C60.3475 174.013 60.4875 174.678 60.7675 175.266C61.0615 175.84 61.4535 176.295 61.9435 176.631C62.4475 176.953 63.0145 177.114 63.6445 177.114ZM66.7945 168H68.4745V178.5H66.9415C66.9415 178.5 66.9275 178.374 66.8995 178.122C66.8855 177.87 66.8645 177.576 66.8365 177.24C66.8085 176.904 66.7945 176.624 66.7945 176.4V168ZM80.5356 174.552C80.4376 175.42 80.1576 176.169 79.6956 176.799C79.2476 177.415 78.6806 177.891 77.9946 178.227C77.3086 178.549 76.5666 178.71 75.7686 178.71C74.8726 178.71 74.0326 178.493 73.2486 178.059C72.4646 177.625 71.8276 177.002 71.3376 176.19C70.8616 175.364 70.6236 174.391 70.6236 173.271C70.6236 172.151 70.8616 171.185 71.3376 170.373C71.8276 169.547 72.4646 168.91 73.2486 168.462C74.0326 168.014 74.8726 167.79 75.7686 167.79C76.5666 167.79 77.3016 167.958 77.9736 168.294C78.6596 168.63 79.2266 169.106 79.6746 169.722C80.1366 170.338 80.4236 171.073 80.5356 171.927H79.0026C78.7646 171.129 78.3516 170.506 77.7636 170.058C77.1756 169.596 76.5106 169.365 75.7686 169.365C75.1666 169.365 74.5996 169.519 74.0676 169.827C73.5356 170.135 73.1086 170.583 72.7866 171.171C72.4646 171.745 72.3036 172.445 72.3036 173.271C72.3036 174.083 72.4646 174.783 72.7866 175.371C73.1086 175.945 73.5286 176.386 74.0466 176.694C74.5786 176.988 75.1526 177.135 75.7686 177.135C76.6226 177.135 77.3156 176.911 77.8476 176.463C78.3936 176.001 78.7856 175.364 79.0236 174.552H80.5356ZM90.1094 175.119H91.6844C91.5724 175.805 91.3204 176.421 90.9284 176.967C90.5504 177.499 90.0464 177.926 89.4164 178.248C88.8004 178.556 88.0864 178.71 87.2744 178.71C86.2944 178.71 85.4124 178.479 84.6284 178.017C83.8444 177.541 83.2214 176.897 82.7594 176.085C82.3114 175.259 82.0874 174.321 82.0874 173.271C82.0874 172.221 82.3044 171.283 82.7384 170.457C83.1864 169.631 83.7954 168.98 84.5654 168.504C85.3354 168.028 86.2034 167.79 87.1694 167.79C88.1914 167.79 89.0524 168.021 89.7524 168.483C90.4664 168.931 90.9914 169.596 91.3274 170.478C91.6774 171.346 91.8174 172.417 91.7474 173.691H83.7674C83.8374 174.377 84.0264 174.979 84.3344 175.497C84.6424 176.015 85.0484 176.421 85.5524 176.715C86.0564 176.995 86.6304 177.135 87.2744 177.135C87.9884 177.135 88.5904 176.953 89.0804 176.589C89.5844 176.211 89.9274 175.721 90.1094 175.119ZM87.2324 169.365C86.3644 169.365 85.6364 169.617 85.0484 170.121C84.4604 170.625 84.0684 171.311 83.8724 172.179H90.0254C89.9694 171.255 89.6684 170.555 89.1224 170.079C88.5904 169.603 87.9604 169.365 87.2324 169.365ZM93.8976 181.482L93.4566 181.02C93.6806 180.628 93.8766 180.236 94.0446 179.844C94.2126 179.466 94.3036 179.095 94.3176 178.731L93.2886 178.5V176.463H95.5566V177.933C95.5566 178.787 95.3816 179.487 95.0316 180.033C94.6956 180.579 94.3176 181.062 93.8976 181.482ZM103.363 168H105.169L108.928 178.08L107.458 178.5L103.363 168ZM113.128 168L107.269 182.7H105.442L107.983 177.03L111.343 168H113.128ZM119.16 178.71C118.264 178.71 117.424 178.493 116.64 178.059C115.856 177.625 115.219 177.002 114.729 176.19C114.253 175.364 114.015 174.391 114.015 173.271C114.015 172.151 114.253 171.185 114.729 170.373C115.219 169.547 115.856 168.91 116.64 168.462C117.424 168.014 118.264 167.79 119.16 167.79C120.056 167.79 120.889 168.014 121.659 168.462C122.443 168.91 123.073 169.547 123.549 170.373C124.025 171.185 124.263 172.151 124.263 173.271C124.263 174.391 124.025 175.364 123.549 176.19C123.073 177.002 122.443 177.625 121.659 178.059C120.889 178.493 120.056 178.71 119.16 178.71ZM119.16 177.135C119.748 177.135 120.301 176.988 120.819 176.694C121.337 176.4 121.757 175.966 122.079 175.392C122.415 174.804 122.583 174.097 122.583 173.271C122.583 172.445 122.415 171.745 122.079 171.171C121.757 170.583 121.337 170.135 120.819 169.827C120.301 169.519 119.748 169.365 119.16 169.365C118.572 169.365 118.012 169.519 117.48 169.827C116.962 170.121 116.535 170.562 116.199 171.15C115.863 171.724 115.695 172.431 115.695 173.271C115.695 174.097 115.856 174.804 116.178 175.392C116.514 175.966 116.948 176.4 117.48 176.694C118.012 176.988 118.572 177.135 119.16 177.135ZM135.299 178.5H133.619V168H135.299V178.5ZM133.724 173.607L133.745 174.195C133.731 174.363 133.689 174.622 133.619 174.972C133.563 175.322 133.458 175.714 133.304 176.148C133.164 176.568 132.954 176.974 132.674 177.366C132.408 177.758 132.058 178.08 131.624 178.332C131.204 178.584 130.679 178.71 130.049 178.71C129.643 178.71 129.223 178.647 128.789 178.521C128.369 178.409 127.977 178.22 127.613 177.954C127.249 177.674 126.955 177.289 126.731 176.799C126.507 176.309 126.395 175.7 126.395 174.972V168H128.075V174.552C128.075 175.182 128.173 175.679 128.369 176.043C128.579 176.393 128.859 176.645 129.209 176.799C129.559 176.953 129.951 177.03 130.385 177.03C131.099 177.03 131.694 176.848 132.17 176.484C132.646 176.12 133.01 175.672 133.262 175.14C133.514 174.608 133.668 174.097 133.724 173.607ZM153.783 174.552C153.685 175.42 153.405 176.169 152.943 176.799C152.495 177.415 151.928 177.891 151.242 178.227C150.556 178.549 149.814 178.71 149.016 178.71C148.12 178.71 147.28 178.493 146.496 178.059C145.712 177.625 145.075 177.002 144.585 176.19C144.109 175.364 143.871 174.391 143.871 173.271C143.871 172.151 144.109 171.185 144.585 170.373C145.075 169.547 145.712 168.91 146.496 168.462C147.28 168.014 148.12 167.79 149.016 167.79C149.814 167.79 150.549 167.958 151.221 168.294C151.907 168.63 152.474 169.106 152.922 169.722C153.384 170.338 153.671 171.073 153.783 171.927H152.25C152.012 171.129 151.599 170.506 151.011 170.058C150.423 169.596 149.758 169.365 149.016 169.365C148.414 169.365 147.847 169.519 147.315 169.827C146.783 170.135 146.356 170.583 146.034 171.171C145.712 171.745 145.551 172.445 145.551 173.271C145.551 174.083 145.712 174.783 146.034 175.371C146.356 175.945 146.776 176.386 147.294 176.694C147.826 176.988 148.4 177.135 149.016 177.135C149.87 177.135 150.563 176.911 151.095 176.463C151.641 176.001 152.033 175.364 152.271 174.552H153.783ZM159.892 178.71C159.066 178.71 158.303 178.479 157.603 178.017C156.917 177.541 156.364 176.897 155.944 176.085C155.538 175.259 155.335 174.321 155.335 173.271C155.335 172.221 155.545 171.283 155.965 170.457C156.385 169.631 156.952 168.98 157.666 168.504C158.394 168.028 159.206 167.79 160.102 167.79C161.082 167.79 161.824 168.042 162.328 168.546C162.846 169.036 163.196 169.694 163.378 170.52C163.574 171.346 163.672 172.263 163.672 173.271C163.672 173.803 163.616 174.384 163.504 175.014C163.392 175.63 163.196 176.225 162.916 176.799C162.65 177.359 162.272 177.821 161.782 178.185C161.292 178.535 160.662 178.71 159.892 178.71ZM160.312 177.114C161.026 177.114 161.614 176.939 162.076 176.589C162.552 176.239 162.902 175.777 163.126 175.203C163.35 174.615 163.462 173.971 163.462 173.271C163.462 172.501 163.343 171.829 163.105 171.255C162.881 170.667 162.531 170.212 162.055 169.89C161.593 169.554 161.012 169.386 160.312 169.386C159.262 169.386 158.45 169.757 157.876 170.499C157.302 171.227 157.015 172.151 157.015 173.271C157.015 174.013 157.155 174.678 157.435 175.266C157.729 175.84 158.121 176.295 158.611 176.631C159.115 176.953 159.682 177.114 160.312 177.114ZM163.462 168H165.142V178.5H163.609C163.609 178.5 163.595 178.374 163.567 178.122C163.553 177.87 163.532 177.576 163.504 177.24C163.476 176.904 163.462 176.624 163.462 176.4V168ZM167.879 168H169.559V178.5H167.879V168ZM173.171 167.79C173.731 167.79 174.235 167.874 174.683 168.042C175.131 168.21 175.509 168.455 175.817 168.777C176.125 169.099 176.363 169.491 176.531 169.953C176.699 170.401 176.783 170.912 176.783 171.486V178.5H175.103V171.906C175.103 171.094 174.914 170.485 174.536 170.079C174.158 169.673 173.591 169.47 172.835 169.47C172.261 169.47 171.729 169.617 171.239 169.911C170.749 170.205 170.343 170.611 170.021 171.129C169.713 171.633 169.524 172.221 169.454 172.893L169.433 171.675C169.503 171.087 169.643 170.555 169.853 170.079C170.077 169.603 170.35 169.197 170.672 168.861C171.008 168.511 171.386 168.245 171.806 168.063C172.24 167.881 172.695 167.79 173.171 167.79ZM196.486 176.967L196.066 176.946L198.523 168H200.35L197.137 178.5H195.562L192.454 169.302H192.874L189.766 178.5H188.191L184.999 168H186.826L189.241 176.946L188.821 176.967L191.656 168H193.693L196.486 176.967ZM206.394 178.71C205.498 178.71 204.658 178.493 203.874 178.059C203.09 177.625 202.453 177.002 201.963 176.19C201.487 175.364 201.249 174.391 201.249 173.271C201.249 172.151 201.487 171.185 201.963 170.373C202.453 169.547 203.09 168.91 203.874 168.462C204.658 168.014 205.498 167.79 206.394 167.79C207.29 167.79 208.123 168.014 208.893 168.462C209.677 168.91 210.307 169.547 210.783 170.373C211.259 171.185 211.497 172.151 211.497 173.271C211.497 174.391 211.259 175.364 210.783 176.19C210.307 177.002 209.677 177.625 208.893 178.059C208.123 178.493 207.29 178.71 206.394 178.71ZM206.394 177.135C206.982 177.135 207.535 176.988 208.053 176.694C208.571 176.4 208.991 175.966 209.313 175.392C209.649 174.804 209.817 174.097 209.817 173.271C209.817 172.445 209.649 171.745 209.313 171.171C208.991 170.583 208.571 170.135 208.053 169.827C207.535 169.519 206.982 169.365 206.394 169.365C205.806 169.365 205.246 169.519 204.714 169.827C204.196 170.121 203.769 170.562 203.433 171.15C203.097 171.724 202.929 172.431 202.929 173.271C202.929 174.097 203.09 174.804 203.412 175.392C203.748 175.966 204.182 176.4 204.714 176.694C205.246 176.988 205.806 177.135 206.394 177.135ZM213.629 168H215.309V178.5H213.629V168ZM218.669 169.575C217.955 169.575 217.353 169.757 216.863 170.121C216.387 170.471 216.009 170.905 215.729 171.423C215.463 171.927 215.288 172.417 215.204 172.893L215.183 171.675C215.183 171.549 215.211 171.339 215.267 171.045C215.323 170.751 215.428 170.422 215.582 170.058C215.736 169.68 215.939 169.323 216.191 168.987C216.457 168.637 216.793 168.35 217.199 168.126C217.605 167.902 218.095 167.79 218.669 167.79V169.575ZM220.813 163.8H222.493V178.5H220.813V163.8ZM229.507 168L224.257 173.187L224.299 172.095L229.864 178.5H227.722L222.535 172.641L227.113 168H229.507ZM237.068 168.168H244.649V170.058H237.068V168.168ZM243.095 163.842H244.817V165.858H243.515C243.123 165.844 242.78 165.886 242.486 165.984C242.206 166.082 241.982 166.264 241.814 166.53C241.66 166.796 241.583 167.174 241.583 167.664V178.5H239.231V167.454C239.231 166.614 239.385 165.928 239.693 165.396C240.001 164.864 240.442 164.472 241.016 164.22C241.604 163.968 242.297 163.842 243.095 163.842ZM250.894 178.731C249.942 178.731 249.067 178.5 248.269 178.038C247.485 177.576 246.855 176.939 246.379 176.127C245.917 175.301 245.686 174.356 245.686 173.292C245.686 172.2 245.924 171.248 246.4 170.436C246.876 169.61 247.52 168.966 248.332 168.504C249.144 168.042 250.054 167.811 251.062 167.811C252.182 167.811 253.071 168.056 253.729 168.546C254.387 169.036 254.856 169.694 255.136 170.52C255.416 171.346 255.556 172.27 255.556 173.292C255.556 173.866 255.472 174.475 255.304 175.119C255.136 175.749 254.87 176.337 254.506 176.883C254.156 177.429 253.68 177.877 253.078 178.227C252.49 178.563 251.762 178.731 250.894 178.731ZM251.608 176.799C252.392 176.799 253.057 176.652 253.603 176.358C254.163 176.05 254.583 175.63 254.863 175.098C255.157 174.566 255.304 173.964 255.304 173.292C255.304 172.55 255.157 171.92 254.863 171.402C254.569 170.87 254.149 170.464 253.603 170.184C253.057 169.89 252.392 169.743 251.608 169.743C250.488 169.743 249.62 170.072 249.004 170.73C248.388 171.388 248.08 172.242 248.08 173.292C248.08 173.978 248.227 174.587 248.521 175.119C248.829 175.651 249.249 176.064 249.781 176.358C250.313 176.652 250.922 176.799 251.608 176.799ZM255.304 168.042H257.656V178.5H255.472C255.472 178.5 255.458 178.367 255.43 178.101C255.402 177.835 255.374 177.513 255.346 177.135C255.318 176.743 255.304 176.372 255.304 176.022V168.042ZM259.756 175.056H261.919C262.031 175.588 262.318 176.022 262.78 176.358C263.242 176.68 263.865 176.841 264.649 176.841C265.153 176.841 265.545 176.785 265.825 176.673C266.119 176.561 266.322 176.407 266.434 176.211C266.56 176.015 266.623 175.791 266.623 175.539C266.623 175.231 266.532 174.993 266.35 174.825C266.182 174.657 265.93 174.517 265.594 174.405C265.258 174.293 264.838 174.195 264.334 174.111C263.816 173.985 263.305 173.845 262.801 173.691C262.297 173.537 261.842 173.348 261.436 173.124C261.03 172.886 260.708 172.592 260.47 172.242C260.246 171.878 260.134 171.437 260.134 170.919C260.134 170.443 260.239 170.016 260.449 169.638C260.673 169.246 260.981 168.917 261.373 168.651C261.765 168.385 262.227 168.182 262.759 168.042C263.291 167.888 263.872 167.811 264.502 167.811C265.412 167.811 266.168 167.958 266.77 168.252C267.386 168.546 267.848 168.959 268.156 169.491C268.478 170.023 268.639 170.632 268.639 171.318H266.581C266.469 170.758 266.252 170.352 265.93 170.1C265.608 169.848 265.125 169.722 264.481 169.722C263.837 169.722 263.347 169.834 263.011 170.058C262.675 170.282 262.507 170.59 262.507 170.982C262.507 171.276 262.612 171.514 262.822 171.696C263.046 171.864 263.361 172.011 263.767 172.137C264.173 172.263 264.649 172.389 265.195 172.515C265.699 172.655 266.175 172.802 266.623 172.956C267.071 173.096 267.47 173.278 267.82 173.502C268.184 173.712 268.471 173.992 268.681 174.342C268.891 174.692 268.996 175.126 268.996 175.644C268.996 176.288 268.821 176.841 268.471 177.303C268.135 177.765 267.645 178.122 267.001 178.374C266.357 178.612 265.58 178.731 264.67 178.731C263.872 178.731 263.179 178.64 262.591 178.458C262.017 178.276 261.534 178.038 261.142 177.744C260.764 177.45 260.47 177.135 260.26 176.799C260.05 176.463 259.903 176.141 259.819 175.833C259.749 175.525 259.728 175.266 259.756 175.056ZM270.373 168.042H277.765V169.953H270.373V168.042ZM272.893 165.228H275.245V178.5H272.893V165.228ZM288.17 175.056H290.417C290.305 175.77 290.025 176.407 289.577 176.967C289.143 177.513 288.548 177.947 287.792 178.269C287.036 178.577 286.133 178.731 285.083 178.731C283.893 178.731 282.829 178.514 281.891 178.08C280.953 177.632 280.218 177.002 279.686 176.19C279.154 175.378 278.888 174.412 278.888 173.292C278.888 172.186 279.147 171.22 279.665 170.394C280.183 169.568 280.897 168.931 281.807 168.483C282.731 168.035 283.795 167.811 284.999 167.811C286.245 167.811 287.281 168.035 288.107 168.483C288.947 168.917 289.57 169.575 289.976 170.457C290.382 171.325 290.55 172.424 290.48 173.754H281.261C281.331 174.342 281.52 174.874 281.828 175.35C282.15 175.812 282.584 176.176 283.13 176.442C283.676 176.694 284.313 176.82 285.041 176.82C285.853 176.82 286.532 176.659 287.078 176.337C287.638 176.015 288.002 175.588 288.17 175.056ZM284.936 169.701C283.984 169.701 283.2 169.939 282.584 170.415C281.968 170.877 281.569 171.472 281.387 172.2H288.128C288.072 171.416 287.757 170.807 287.183 170.373C286.609 169.925 285.86 169.701 284.936 169.701ZM292.559 168.042H294.89V178.5H292.559V168.042ZM298.67 170.037C297.914 170.037 297.263 170.198 296.717 170.52C296.185 170.842 295.758 171.234 295.436 171.696C295.114 172.158 294.89 172.606 294.764 173.04L294.743 171.864C294.757 171.71 294.806 171.479 294.89 171.171C294.974 170.849 295.1 170.499 295.268 170.121C295.45 169.743 295.688 169.379 295.982 169.029C296.29 168.665 296.661 168.371 297.095 168.147C297.543 167.923 298.068 167.811 298.67 167.811V170.037ZM310.903 178.71C310.077 178.71 309.314 178.479 308.614 178.017C307.928 177.541 307.375 176.897 306.955 176.085C306.549 175.259 306.346 174.321 306.346 173.271C306.346 172.221 306.556 171.283 306.976 170.457C307.396 169.631 307.963 168.98 308.677 168.504C309.405 168.028 310.217 167.79 311.113 167.79C312.093 167.79 312.835 168.042 313.339 168.546C313.857 169.036 314.207 169.694 314.389 170.52C314.585 171.346 314.683 172.263 314.683 173.271C314.683 173.803 314.627 174.384 314.515 175.014C314.403 175.63 314.207 176.225 313.927 176.799C313.661 177.359 313.283 177.821 312.793 178.185C312.303 178.535 311.673 178.71 310.903 178.71ZM311.323 177.114C312.037 177.114 312.625 176.939 313.087 176.589C313.563 176.239 313.913 175.777 314.137 175.203C314.361 174.615 314.473 173.971 314.473 173.271C314.473 172.501 314.354 171.829 314.116 171.255C313.892 170.667 313.542 170.212 313.066 169.89C312.604 169.554 312.023 169.386 311.323 169.386C310.273 169.386 309.461 169.757 308.887 170.499C308.313 171.227 308.026 172.151 308.026 173.271C308.026 174.013 308.166 174.678 308.446 175.266C308.74 175.84 309.132 176.295 309.622 176.631C310.126 176.953 310.693 177.114 311.323 177.114ZM314.473 168H316.153V178.5H314.62C314.62 178.5 314.606 178.374 314.578 178.122C314.564 177.87 314.543 177.576 314.515 177.24C314.487 176.904 314.473 176.624 314.473 176.4V168ZM318.89 168H320.57V178.5H318.89V168ZM324.182 167.79C324.742 167.79 325.246 167.874 325.694 168.042C326.142 168.21 326.52 168.455 326.828 168.777C327.136 169.099 327.374 169.491 327.542 169.953C327.71 170.401 327.794 170.912 327.794 171.486V178.5H326.114V171.906C326.114 171.094 325.925 170.485 325.547 170.079C325.169 169.673 324.602 169.47 323.846 169.47C323.272 169.47 322.74 169.617 322.25 169.911C321.76 170.205 321.354 170.611 321.032 171.129C320.724 171.633 320.535 172.221 320.465 172.893L320.444 171.675C320.514 171.087 320.654 170.555 320.864 170.079C321.088 169.603 321.361 169.197 321.683 168.861C322.019 168.511 322.397 168.245 322.817 168.063C323.251 167.881 323.706 167.79 324.182 167.79ZM334.487 178.71C333.647 178.71 332.877 178.479 332.177 178.017C331.491 177.541 330.945 176.897 330.539 176.085C330.133 175.259 329.93 174.321 329.93 173.271C329.93 172.221 330.126 171.283 330.518 170.457C330.91 169.631 331.449 168.98 332.135 168.504C332.821 168.028 333.605 167.79 334.487 167.79C335.271 167.79 335.908 167.937 336.398 168.231C336.902 168.511 337.287 168.903 337.553 169.407C337.819 169.911 338.001 170.492 338.099 171.15C338.211 171.808 338.267 172.515 338.267 173.271C338.267 173.803 338.211 174.384 338.099 175.014C337.987 175.63 337.791 176.225 337.511 176.799C337.245 177.359 336.867 177.821 336.377 178.185C335.887 178.535 335.257 178.71 334.487 178.71ZM334.907 177.114C335.621 177.114 336.209 176.939 336.671 176.589C337.147 176.239 337.497 175.777 337.721 175.203C337.945 174.615 338.057 173.971 338.057 173.271C338.057 172.501 337.938 171.829 337.7 171.255C337.476 170.667 337.126 170.212 336.65 169.89C336.188 169.554 335.607 169.386 334.907 169.386C333.857 169.386 333.045 169.757 332.471 170.499C331.897 171.227 331.61 172.151 331.61 173.271C331.61 174.013 331.75 174.678 332.03 175.266C332.324 175.84 332.716 176.295 333.206 176.631C333.71 176.953 334.277 177.114 334.907 177.114ZM338.057 163.8H339.737V178.5H338.204C338.176 178.192 338.141 177.828 338.099 177.408C338.071 176.988 338.057 176.652 338.057 176.4V163.8ZM349.155 168.042H351.486V178.5H349.155V168.042ZM355.896 167.811C356.498 167.811 357.051 167.895 357.555 168.063C358.073 168.231 358.514 168.49 358.878 168.84C359.256 169.176 359.543 169.596 359.739 170.1C359.949 170.604 360.054 171.199 360.054 171.885V178.5H357.723V172.347C357.723 171.493 357.513 170.863 357.093 170.457C356.687 170.037 356.043 169.827 355.161 169.827C354.489 169.827 353.873 169.974 353.313 170.268C352.767 170.548 352.319 170.919 351.969 171.381C351.619 171.829 351.416 172.326 351.36 172.872L351.339 171.738C351.409 171.22 351.563 170.73 351.801 170.268C352.039 169.792 352.354 169.372 352.746 169.008C353.138 168.63 353.6 168.336 354.132 168.126C354.664 167.916 355.252 167.811 355.896 167.811ZM364.233 167.811C364.849 167.811 365.409 167.895 365.913 168.063C366.417 168.231 366.851 168.49 367.215 168.84C367.593 169.176 367.887 169.596 368.097 170.1C368.307 170.604 368.412 171.199 368.412 171.885V178.5H366.06V172.347C366.06 171.493 365.85 170.863 365.43 170.457C365.024 170.037 364.38 169.827 363.498 169.827C362.826 169.827 362.21 169.974 361.65 170.268C361.104 170.548 360.656 170.919 360.306 171.381C359.97 171.829 359.774 172.326 359.718 172.872L359.676 171.696C359.746 171.192 359.907 170.709 360.159 170.247C360.411 169.771 360.733 169.351 361.125 168.987C361.517 168.623 361.972 168.336 362.49 168.126C363.022 167.916 363.603 167.811 364.233 167.811ZM376.54 178.731C375.378 178.731 374.335 178.521 373.411 178.101C372.487 177.681 371.759 177.065 371.227 176.253C370.695 175.441 370.429 174.454 370.429 173.292C370.429 172.144 370.695 171.164 371.227 170.352C371.759 169.526 372.487 168.896 373.411 168.462C374.335 168.028 375.378 167.811 376.54 167.811C377.702 167.811 378.738 168.028 379.648 168.462C380.558 168.896 381.272 169.526 381.79 170.352C382.322 171.164 382.588 172.144 382.588 173.292C382.588 174.454 382.322 175.441 381.79 176.253C381.272 177.065 380.558 177.681 379.648 178.101C378.738 178.521 377.702 178.731 376.54 178.731ZM376.54 176.82C377.212 176.82 377.828 176.687 378.388 176.421C378.948 176.155 379.389 175.756 379.711 175.224C380.047 174.692 380.215 174.048 380.215 173.292C380.215 172.536 380.047 171.892 379.711 171.36C379.389 170.828 378.948 170.422 378.388 170.142C377.842 169.848 377.226 169.701 376.54 169.701C375.854 169.701 375.231 169.841 374.671 170.121C374.111 170.401 373.656 170.807 373.306 171.339C372.97 171.871 372.802 172.522 372.802 173.292C372.802 174.048 372.97 174.692 373.306 175.224C373.642 175.756 374.09 176.155 374.65 176.421C375.224 176.687 375.854 176.82 376.54 176.82ZM384.674 168.042H387.005V178.5H384.674V168.042ZM390.785 170.037C390.029 170.037 389.378 170.198 388.832 170.52C388.3 170.842 387.873 171.234 387.551 171.696C387.229 172.158 387.005 172.606 386.879 173.04L386.858 171.864C386.872 171.71 386.921 171.479 387.005 171.171C387.089 170.849 387.215 170.499 387.383 170.121C387.565 169.743 387.803 169.379 388.097 169.029C388.405 168.665 388.776 168.371 389.21 168.147C389.658 167.923 390.183 167.811 390.785 167.811V170.037ZM401.285 175.056H403.532C403.42 175.77 403.14 176.407 402.692 176.967C402.258 177.513 401.663 177.947 400.907 178.269C400.151 178.577 399.248 178.731 398.198 178.731C397.008 178.731 395.944 178.514 395.006 178.08C394.068 177.632 393.333 177.002 392.801 176.19C392.269 175.378 392.003 174.412 392.003 173.292C392.003 172.186 392.262 171.22 392.78 170.394C393.298 169.568 394.012 168.931 394.922 168.483C395.846 168.035 396.91 167.811 398.114 167.811C399.36 167.811 400.396 168.035 401.222 168.483C402.062 168.917 402.685 169.575 403.091 170.457C403.497 171.325 403.665 172.424 403.595 173.754H394.376C394.446 174.342 394.635 174.874 394.943 175.35C395.265 175.812 395.699 176.176 396.245 176.442C396.791 176.694 397.428 176.82 398.156 176.82C398.968 176.82 399.647 176.659 400.193 176.337C400.753 176.015 401.117 175.588 401.285 175.056ZM398.051 169.701C397.099 169.701 396.315 169.939 395.699 170.415C395.083 170.877 394.684 171.472 394.502 172.2H401.243C401.187 171.416 400.872 170.807 400.298 170.373C399.724 169.925 398.975 169.701 398.051 169.701ZM411.806 168.168H419.387V170.058H411.806V168.168ZM417.833 163.842H419.555V165.858H418.253C417.861 165.844 417.518 165.886 417.224 165.984C416.944 166.082 416.72 166.264 416.552 166.53C416.398 166.796 416.321 167.174 416.321 167.664V178.5H413.969V167.454C413.969 166.614 414.123 165.928 414.431 165.396C414.739 164.864 415.18 164.472 415.754 164.22C416.342 163.968 417.035 163.842 417.833 163.842ZM421.344 163.842H423.675V178.5H421.344V163.842ZM435.243 175.056H437.49C437.378 175.77 437.098 176.407 436.65 176.967C436.216 177.513 435.621 177.947 434.865 178.269C434.109 178.577 433.206 178.731 432.156 178.731C430.966 178.731 429.902 178.514 428.964 178.08C428.026 177.632 427.291 177.002 426.759 176.19C426.227 175.378 425.961 174.412 425.961 173.292C425.961 172.186 426.22 171.22 426.738 170.394C427.256 169.568 427.97 168.931 428.88 168.483C429.804 168.035 430.868 167.811 432.072 167.811C433.318 167.811 434.354 168.035 435.18 168.483C436.02 168.917 436.643 169.575 437.049 170.457C437.455 171.325 437.623 172.424 437.553 173.754H428.334C428.404 174.342 428.593 174.874 428.901 175.35C429.223 175.812 429.657 176.176 430.203 176.442C430.749 176.694 431.386 176.82 432.114 176.82C432.926 176.82 433.605 176.659 434.151 176.337C434.711 176.015 435.075 175.588 435.243 175.056ZM432.009 169.701C431.057 169.701 430.273 169.939 429.657 170.415C429.041 170.877 428.642 171.472 428.46 172.2H435.201C435.145 171.416 434.83 170.807 434.256 170.373C433.682 169.925 432.933 169.701 432.009 169.701ZM449.848 168.042L444.934 173.817L441.238 178.5H438.382L443.548 172.41L447.013 168.042H449.848ZM438.382 168.042H441.259L444.955 172.41L450.121 178.5H447.265L443.443 173.859L438.382 168.042ZM454.605 163.611V165.858H451.812V163.611H454.605ZM452.022 168.042H454.374V178.5H452.022V168.042ZM464.285 178.731C463.417 178.731 462.682 178.563 462.08 178.227C461.492 177.877 461.016 177.429 460.652 176.883C460.302 176.337 460.043 175.749 459.875 175.119C459.721 174.475 459.644 173.866 459.644 173.292C459.644 172.522 459.721 171.808 459.875 171.15C460.029 170.492 460.281 169.918 460.631 169.428C460.995 168.924 461.471 168.532 462.059 168.252C462.661 167.958 463.403 167.811 464.285 167.811C465.293 167.811 466.182 168.042 466.952 168.504C467.736 168.966 468.352 169.61 468.8 170.436C469.262 171.248 469.493 172.2 469.493 173.292C469.493 174.356 469.262 175.301 468.8 176.127C468.338 176.939 467.715 177.576 466.931 178.038C466.147 178.5 465.265 178.731 464.285 178.731ZM463.571 176.799C464.285 176.799 464.901 176.652 465.419 176.358C465.951 176.064 466.364 175.651 466.658 175.119C466.952 174.587 467.099 173.978 467.099 173.292C467.099 172.242 466.791 171.388 466.175 170.73C465.559 170.058 464.691 169.722 463.571 169.722C462.801 169.722 462.136 169.869 461.576 170.163C461.03 170.457 460.61 170.87 460.316 171.402C460.036 171.92 459.896 172.55 459.896 173.292C459.896 173.964 460.036 174.566 460.316 175.098C460.61 175.63 461.03 176.05 461.576 176.358C462.122 176.652 462.787 176.799 463.571 176.799ZM459.896 163.842V176.022C459.896 176.4 459.875 176.827 459.833 177.303C459.791 177.779 459.749 178.178 459.707 178.5H457.544V163.842H459.896ZM471.752 163.842H474.083V178.5H471.752V163.842ZM475.97 168.042H478.469L482.69 178.08L480.674 178.5L475.97 168.042ZM487.625 168.042L480.905 182.7H478.448L481.325 176.967L485.126 168.042H487.625ZM0.63 200H6.804V201.575H0.63V200ZM2.877 197.27H4.557V210.5H2.877V197.27ZM16.2648 210.5V203.906C16.2648 203.36 16.1808 202.912 16.0128 202.562C15.8448 202.198 15.5928 201.925 15.2568 201.743C14.9208 201.561 14.5008 201.47 13.9968 201.47C13.4228 201.47 12.8908 201.617 12.4008 201.911C11.9108 202.205 11.5048 202.611 11.1828 203.129C10.8748 203.633 10.6858 204.221 10.6158 204.893L10.5948 203.675C10.6648 203.087 10.8048 202.555 11.0148 202.079C11.2388 201.603 11.5118 201.197 11.8338 200.861C12.1698 200.511 12.5478 200.245 12.9678 200.063C13.4018 199.881 13.8568 199.79 14.3328 199.79C14.8928 199.79 15.3968 199.874 15.8448 200.042C16.2928 200.21 16.6708 200.455 16.9788 200.777C17.2868 201.099 17.5248 201.491 17.6928 201.953C17.8608 202.401 17.9448 202.912 17.9448 203.486V210.5H16.2648ZM9.04083 210.5V195.8H10.7208V210.5H9.04083ZM24.6524 210.71C23.8264 210.71 23.0634 210.479 22.3634 210.017C21.6774 209.541 21.1244 208.897 20.7044 208.085C20.2984 207.259 20.0954 206.321 20.0954 205.271C20.0954 204.221 20.3054 203.283 20.7254 202.457C21.1454 201.631 21.7124 200.98 22.4264 200.504C23.1544 200.028 23.9664 199.79 24.8624 199.79C25.8424 199.79 26.5844 200.042 27.0884 200.546C27.6064 201.036 27.9564 201.694 28.1384 202.52C28.3344 203.346 28.4324 204.263 28.4324 205.271C28.4324 205.803 28.3764 206.384 28.2644 207.014C28.1524 207.63 27.9564 208.225 27.6764 208.799C27.4104 209.359 27.0324 209.821 26.5424 210.185C26.0524 210.535 25.4224 210.71 24.6524 210.71ZM25.0724 209.114C25.7864 209.114 26.3744 208.939 26.8364 208.589C27.3124 208.239 27.6624 207.777 27.8864 207.203C28.1104 206.615 28.2224 205.971 28.2224 205.271C28.2224 204.501 28.1034 203.829 27.8654 203.255C27.6414 202.667 27.2914 202.212 26.8154 201.89C26.3534 201.554 25.7724 201.386 25.0724 201.386C24.0224 201.386 23.2104 201.757 22.6364 202.499C22.0624 203.227 21.7754 204.151 21.7754 205.271C21.7754 206.013 21.9154 206.678 22.1954 207.266C22.4894 207.84 22.8814 208.295 23.3714 208.631C23.8754 208.953 24.4424 209.114 25.0724 209.114ZM28.2224 200H29.9024V210.5H28.3694C28.3694 210.5 28.3554 210.374 28.3274 210.122C28.3134 209.87 28.2924 209.576 28.2644 209.24C28.2364 208.904 28.2224 208.624 28.2224 208.4V200ZM32.6394 200H34.3194V210.5H32.6394V200ZM37.9314 199.79C38.4914 199.79 38.9954 199.874 39.4434 200.042C39.8914 200.21 40.2694 200.455 40.5774 200.777C40.8854 201.099 41.1234 201.491 41.2914 201.953C41.4594 202.401 41.5434 202.912 41.5434 203.486V210.5H39.8634V203.906C39.8634 203.094 39.6744 202.485 39.2964 202.079C38.9184 201.673 38.3514 201.47 37.5954 201.47C37.0214 201.47 36.4894 201.617 35.9994 201.911C35.5094 202.205 35.1034 202.611 34.7814 203.129C34.4734 203.633 34.2844 204.221 34.2144 204.893L34.1934 203.675C34.2634 203.087 34.4034 202.555 34.6134 202.079C34.8374 201.603 35.1104 201.197 35.4324 200.861C35.7684 200.511 36.1464 200.245 36.5664 200.063C37.0004 199.881 37.4554 199.79 37.9314 199.79ZM56.1105 207.119H57.6855C57.5735 207.805 57.3215 208.421 56.9295 208.967C56.5515 209.499 56.0475 209.926 55.4175 210.248C54.8015 210.556 54.0875 210.71 53.2755 210.71C52.2955 210.71 51.4135 210.479 50.6295 210.017C49.8455 209.541 49.2225 208.897 48.7605 208.085C48.3125 207.259 48.0885 206.321 48.0885 205.271C48.0885 204.221 48.3055 203.283 48.7395 202.457C49.1875 201.631 49.7965 200.98 50.5665 200.504C51.3365 200.028 52.2045 199.79 53.1705 199.79C54.1925 199.79 55.0535 200.021 55.7535 200.483C56.4675 200.931 56.9925 201.596 57.3285 202.478C57.6785 203.346 57.8185 204.417 57.7485 205.691H49.7685C49.8385 206.377 50.0275 206.979 50.3355 207.497C50.6435 208.015 51.0495 208.421 51.5535 208.715C52.0575 208.995 52.6315 209.135 53.2755 209.135C53.9895 209.135 54.5915 208.953 55.0815 208.589C55.5855 208.211 55.9285 207.721 56.1105 207.119ZM53.2335 201.365C52.3655 201.365 51.6375 201.617 51.0495 202.121C50.4615 202.625 50.0695 203.311 49.8735 204.179H56.0265C55.9705 203.255 55.6695 202.555 55.1235 202.079C54.5915 201.603 53.9615 201.365 53.2335 201.365ZM63.6602 209.051H63.1562L66.3692 200H68.1962L64.2062 210.5H62.6312L58.6622 200H60.4892L63.6602 209.051ZM77.1105 207.119H78.6855C78.5735 207.805 78.3215 208.421 77.9295 208.967C77.5515 209.499 77.0475 209.926 76.4175 210.248C75.8015 210.556 75.0875 210.71 74.2755 210.71C73.2955 210.71 72.4135 210.479 71.6295 210.017C70.8455 209.541 70.2225 208.897 69.7605 208.085C69.3125 207.259 69.0885 206.321 69.0885 205.271C69.0885 204.221 69.3055 203.283 69.7395 202.457C70.1875 201.631 70.7965 200.98 71.5665 200.504C72.3365 200.028 73.2045 199.79 74.1705 199.79C75.1925 199.79 76.0535 200.021 76.7535 200.483C77.4675 200.931 77.9925 201.596 78.3285 202.478C78.6785 203.346 78.8185 204.417 78.7485 205.691H70.7685C70.8385 206.377 71.0275 206.979 71.3355 207.497C71.6435 208.015 72.0495 208.421 72.5535 208.715C73.0575 208.995 73.6315 209.135 74.2755 209.135C74.9895 209.135 75.5915 208.953 76.0815 208.589C76.5855 208.211 76.9285 207.721 77.1105 207.119ZM74.2335 201.365C73.3655 201.365 72.6375 201.617 72.0495 202.121C71.4615 202.625 71.0695 203.311 70.8735 204.179H77.0265C76.9705 203.255 76.6695 202.555 76.1235 202.079C75.5915 201.603 74.9615 201.365 74.2335 201.365ZM80.9148 200H82.5948V210.5H80.9148V200ZM85.9548 201.575C85.2408 201.575 84.6388 201.757 84.1488 202.121C83.6728 202.471 83.2948 202.905 83.0148 203.423C82.7488 203.927 82.5738 204.417 82.4898 204.893L82.4688 203.675C82.4688 203.549 82.4968 203.339 82.5528 203.045C82.6088 202.751 82.7138 202.422 82.8678 202.058C83.0218 201.68 83.2248 201.323 83.4768 200.987C83.7428 200.637 84.0788 200.35 84.4848 200.126C84.8908 199.902 85.3808 199.79 85.9548 199.79V201.575ZM97.8206 210.71C97.0506 210.71 96.4206 210.535 95.9306 210.185C95.4406 209.821 95.0556 209.359 94.7756 208.799C94.5096 208.225 94.3206 207.63 94.2086 207.014C94.0966 206.384 94.0406 205.803 94.0406 205.271C94.0406 204.515 94.0896 203.808 94.1876 203.15C94.2996 202.492 94.4886 201.911 94.7546 201.407C95.0206 200.903 95.3986 200.511 95.8886 200.231C96.3926 199.937 97.0366 199.79 97.8206 199.79C98.7026 199.79 99.4866 200.028 100.173 200.504C100.859 200.98 101.398 201.631 101.79 202.457C102.182 203.283 102.378 204.221 102.378 205.271C102.378 206.321 102.175 207.259 101.769 208.085C101.363 208.897 100.817 209.541 100.131 210.017C99.4446 210.479 98.6746 210.71 97.8206 210.71ZM97.4006 209.114C98.0446 209.114 98.6116 208.953 99.1016 208.631C99.5916 208.295 99.9766 207.84 100.257 207.266C100.551 206.678 100.698 206.013 100.698 205.271C100.698 204.151 100.411 203.227 99.8366 202.499C99.2626 201.757 98.4506 201.386 97.4006 201.386C96.7006 201.386 96.1126 201.554 95.6366 201.89C95.1746 202.212 94.8246 202.667 94.5866 203.255C94.3626 203.829 94.2506 204.501 94.2506 205.271C94.2506 205.971 94.3626 206.615 94.5866 207.203C94.8246 207.777 95.1746 208.239 95.6366 208.589C96.0986 208.939 96.6866 209.114 97.4006 209.114ZM94.2506 195.8V208.4C94.2506 208.652 94.2296 208.988 94.1876 209.408C94.1596 209.828 94.1316 210.192 94.1036 210.5H92.5706V195.8H94.2506ZM111.953 207.119H113.528C113.416 207.805 113.164 208.421 112.772 208.967C112.394 209.499 111.89 209.926 111.26 210.248C110.644 210.556 109.93 210.71 109.118 210.71C108.138 210.71 107.256 210.479 106.472 210.017C105.688 209.541 105.065 208.897 104.603 208.085C104.155 207.259 103.931 206.321 103.931 205.271C103.931 204.221 104.148 203.283 104.582 202.457C105.03 201.631 105.639 200.98 106.409 200.504C107.179 200.028 108.047 199.79 109.013 199.79C110.035 199.79 110.896 200.021 111.596 200.483C112.31 200.931 112.835 201.596 113.171 202.478C113.521 203.346 113.661 204.417 113.591 205.691H105.611C105.681 206.377 105.87 206.979 106.178 207.497C106.486 208.015 106.892 208.421 107.396 208.715C107.9 208.995 108.474 209.135 109.118 209.135C109.832 209.135 110.434 208.953 110.924 208.589C111.428 208.211 111.771 207.721 111.953 207.119ZM109.076 201.365C108.208 201.365 107.48 201.617 106.892 202.121C106.304 202.625 105.912 203.311 105.716 204.179H111.869C111.813 203.255 111.512 202.555 110.966 202.079C110.434 201.603 109.804 201.365 109.076 201.365ZM114.818 200H120.992V201.575H114.818V200ZM120.257 195.8H121.223V197.48H120.257C119.907 197.466 119.585 197.515 119.291 197.627C119.011 197.739 118.787 197.935 118.619 198.215C118.451 198.481 118.367 198.866 118.367 199.37V210.5H116.687V199.37C116.687 198.53 116.834 197.851 117.128 197.333C117.436 196.801 117.856 196.416 118.388 196.178C118.934 195.926 119.557 195.8 120.257 195.8ZM127.185 210.71C126.289 210.71 125.449 210.493 124.665 210.059C123.881 209.625 123.244 209.002 122.754 208.19C122.278 207.364 122.04 206.391 122.04 205.271C122.04 204.151 122.278 203.185 122.754 202.373C123.244 201.547 123.881 200.91 124.665 200.462C125.449 200.014 126.289 199.79 127.185 199.79C128.081 199.79 128.914 200.014 129.684 200.462C130.468 200.91 131.098 201.547 131.574 202.373C132.05 203.185 132.288 204.151 132.288 205.271C132.288 206.391 132.05 207.364 131.574 208.19C131.098 209.002 130.468 209.625 129.684 210.059C128.914 210.493 128.081 210.71 127.185 210.71ZM127.185 209.135C127.773 209.135 128.326 208.988 128.844 208.694C129.362 208.4 129.782 207.966 130.104 207.392C130.44 206.804 130.608 206.097 130.608 205.271C130.608 204.445 130.44 203.745 130.104 203.171C129.782 202.583 129.362 202.135 128.844 201.827C128.326 201.519 127.773 201.365 127.185 201.365C126.597 201.365 126.037 201.519 125.505 201.827C124.987 202.121 124.56 202.562 124.224 203.15C123.888 203.724 123.72 204.431 123.72 205.271C123.72 206.097 123.881 206.804 124.203 207.392C124.539 207.966 124.973 208.4 125.505 208.694C126.037 208.988 126.597 209.135 127.185 209.135ZM134.42 200H136.1V210.5H134.42V200ZM139.46 201.575C138.746 201.575 138.144 201.757 137.654 202.121C137.178 202.471 136.8 202.905 136.52 203.423C136.254 203.927 136.079 204.417 135.995 204.893L135.974 203.675C135.974 203.549 136.002 203.339 136.058 203.045C136.114 202.751 136.219 202.422 136.373 202.058C136.527 201.68 136.73 201.323 136.982 200.987C137.248 200.637 137.584 200.35 137.99 200.126C138.396 199.902 138.886 199.79 139.46 199.79V201.575ZM148.785 207.119H150.36C150.248 207.805 149.996 208.421 149.604 208.967C149.226 209.499 148.722 209.926 148.092 210.248C147.476 210.556 146.762 210.71 145.95 210.71C144.97 210.71 144.088 210.479 143.304 210.017C142.52 209.541 141.897 208.897 141.435 208.085C140.987 207.259 140.763 206.321 140.763 205.271C140.763 204.221 140.98 203.283 141.414 202.457C141.862 201.631 142.471 200.98 143.241 200.504C144.011 200.028 144.879 199.79 145.845 199.79C146.867 199.79 147.728 200.021 148.428 200.483C149.142 200.931 149.667 201.596 150.003 202.478C150.353 203.346 150.493 204.417 150.423 205.691H142.443C142.513 206.377 142.702 206.979 143.01 207.497C143.318 208.015 143.724 208.421 144.228 208.715C144.732 208.995 145.306 209.135 145.95 209.135C146.664 209.135 147.266 208.953 147.756 208.589C148.26 208.211 148.603 207.721 148.785 207.119ZM145.908 201.365C145.04 201.365 144.312 201.617 143.724 202.121C143.136 202.625 142.744 203.311 142.548 204.179H148.701C148.645 203.255 148.344 202.555 147.798 202.079C147.266 201.603 146.636 201.365 145.908 201.365ZM154.569 208.442V210.5H152.385V208.442H154.569Z" fill="white"/>
</svg>
